<svg xmlns="http://www.w3.org/2000/svg" viewBox="0 0 1050.2 527.74">
  <defs>
		<clipPath id="logo-cp-01" transform="translate(-9.42 -40.52)">
			<path d="m169.71 393.78 5.75 44.13s-6.41-13.48-18.72-12.78c0 0-11.94.68-17.27 15.83 0 0-2.35 7.48-5.19 12 0 0-5.77 8.35-13.22 6.06a18.61 18.61 0 0 1-6.59-3.53c-11-8.46-5.91-24.54 19.61-42a315.58 315.58 0 0 1 35.65-19.7" clip-rule="evenodd"/>
		</clipPath>
		<clipPath id="logo-cp-02" transform="translate(-9.42 -40.52)">
			<path d="M840.06 390.92s14-12.77-3.86-32.07c-10.58-11.41-38.68-20.88-77.41-27.4l-5.89 16.27c-2.36 7.56-9.1 23.85-9.1 23.85a26.65 26.65 0 0 1 12.57-9.57c8.51-3.11 29.7.86 41.59 13.13s26.08 21.11 35.6 19.38a15.93 15.93 0 0 0 6.5-3.59Z" clip-rule="evenodd"/>
		</clipPath>
		<clipPath id="logo-cp-03" transform="translate(-9.42 -40.52)">
			<path d="M169.73 393.75c87.75-40.62 194.15-58.18 305.53-68.63 100-9.39 196.29-8.29 283.56 6.33 49.84 8.35 68.25 19.56 74.44 24.66a24.59 24.59 0 0 1 2.94 2.74c17.89 19.3 3.86 32.07 3.86 32.07 6.32-6.22 14.52-12.31 25.56-48.4 14.06-45.93 42.91-90.14 61.81-121.39 18.21-30.07 46.36-49.68 7.45-74.35s-167-97.4-369.74-89.37c-212.67 8.42-378.36 93.32-426.28 120.9-47.7 27.48-47.54 33-48.2 98.92-.32 33.18-3.12 77.54.76 115.34 1.47 14.3 3.85 25.79 6.82 34.69 7.17 21.57 16.23 28.19 16.23 28.19-11-8.46-5.91-24.54 19.61-42a311.4 311.4 0 0 1 35.65-19.7Z" clip-rule="evenodd"/>
		</clipPath>
		<clipPath id="logo-cp-04" transform="translate(-9.42 -40.52)">
			<path d="M920.68 232.16s39.84 5.23 80.48 27.45c38.72 21.19 55.89 44.1 55.89 44.1l-85.86 38.23s11.78 61.5 16.69 87.25 9.43 59.2 9.43 59.2-21.54-63.74-94.78-82.95c-32.44-8.53-63.38-3.55-85.13-1.43-8.84.83-8.08 2-35.38 5-32.83 3.59-47.42-20.14-38.22-37.33a26.65 26.65 0 0 1 12.57-9.68c8.51-3.11 29.7.86 41.59 13.13s26.08 21.11 35.6 19.38a15.93 15.93 0 0 0 6.5-3.55c6.32-6.22 14.52-12.31 25.56-48.39 12.44-40.78 36.64-80.2 55.12-110.4" clip-rule="evenodd"/>
		</clipPath>
		<clipPath id="logo-cp-05" transform="translate(-9.42 -40.52)">
			<path d="M90.34 292.67s-23.57 10.46-39.71 20.58c-28 17.49-39.2 31.5-39.2 31.5l45.1 42.64L21 494.28s33.43-35 77.32-32.27c25.34 1.6 45.48 13.57 66.91 4.71 10.73-4.44 13.56-21 10.23-28.84 0 0-6.4-13.48-18.71-12.78 0 0-11.95.68-17.28 15.83 0 0-2.34 7.48-5.18 12 0 0-5.77 8.34-13.22 6.05a18.68 18.68 0 0 1-6.6-3.54s-18.25-13.38-23-62.88c-3.11-32.66-2.27-46.66-1-99.89" clip-rule="evenodd"/>
		</clipPath>
		<linearGradient id="logo-lg-01" x1="150.2" x2="238.86" y1="249.11" y2="249.11" gradientTransform="matrix(.75 0 0 -.75 -3.88 614.34)" gradientUnits="userSpaceOnUse">
			<stop offset="0" stop-color="#818383"/>
			<stop offset=".08" stop-color="#959696"/>
			<stop offset=".25" stop-color="#c7c8c8"/>
			<stop offset=".42" stop-color="#fff"/>
			<stop offset=".63" stop-color="#fff"/>
			<stop offset=".78" stop-color="#c7c8c8"/>
			<stop offset=".93" stop-color="#949696"/>
			<stop offset="1" stop-color="#818383"/>
		</linearGradient>
		<linearGradient id="logo-lg-02" x1="1001.42" x2="1134.62" y1="337.48" y2="314.01" gradientTransform="matrix(.75 0 0 -.75 -4.48 607.74)" gradientUnits="userSpaceOnUse">
			<stop offset="0" stop-color="#818383"/>
			<stop offset=".07" stop-color="#959696"/>
			<stop offset=".22" stop-color="#c7c8c8"/>
			<stop offset=".36" stop-color="#fff"/>
			<stop offset=".63" stop-color="#fff"/>
			<stop offset=".73" stop-color="#d7d7d7"/>
			<stop offset=".91" stop-color="#999b9b"/>
			<stop offset="1" stop-color="#818383"/>
		</linearGradient>
		<linearGradient id="logo-lg-03" x1="125.34" x2="1281.04" y1="477.32" y2="477.32" gradientTransform="matrix(.75 0 0 -.75 -5.61 610.42)" gradientUnits="userSpaceOnUse">
			<stop offset="0" stop-color="#f4f4f4"/>
			<stop offset=".07" stop-color="#818383"/>
			<stop offset=".11" stop-color="#959696"/>
			<stop offset=".19" stop-color="#c7c8c8"/>
			<stop offset=".28" stop-color="#fff"/>
			<stop offset=".53" stop-color="#fff"/>
			<stop offset=".61" stop-color="#d7d7d7"/>
			<stop offset=".75" stop-color="#999b9b"/>
			<stop offset=".81" stop-color="#818383"/>
			<stop offset=".84" stop-color="#868888"/>
			<stop offset=".88" stop-color="#949696"/>
			<stop offset=".92" stop-color="#abadad"/>
			<stop offset=".96" stop-color="#ccc"/>
			<stop offset="1" stop-color="#f4f4f4"/>
		</linearGradient>
		<linearGradient id="logo-lg-04" x1="1013.59" x2="1383.4" y1="378.71" y2="279.62" gradientTransform="matrix(.75 0 0 -.75 -4.51 606.77)" gradientUnits="userSpaceOnUse">
			<stop offset="0" stop-color="#818383"/>
			<stop offset=".06" stop-color="#959696"/>
			<stop offset=".17" stop-color="#c7c8c8"/>
			<stop offset=".28" stop-color="#fff"/>
			<stop offset=".53" stop-color="#fff"/>
			<stop offset=".64" stop-color="#c7c8c8"/>
			<stop offset=".74" stop-color="#949696"/>
			<stop offset=".79" stop-color="#818383"/>
			<stop offset=".84" stop-color="#848686"/>
			<stop offset=".88" stop-color="#8f9090"/>
			<stop offset=".91" stop-color="#a0a1a1"/>
			<stop offset=".94" stop-color="#b8b9b9"/>
			<stop offset=".98" stop-color="#d7d8d8"/>
			<stop offset="1" stop-color="#f4f4f4"/>
		</linearGradient>
		<linearGradient id="logo-lg-05" x1="12.34" x2="225.73" y1="273.92" y2="311.54" gradientTransform="matrix(.75 0 0 -.75 -4.22 614.78)" gradientUnits="userSpaceOnUse">
			<stop offset="0" stop-color="#f4f4f4"/>
			<stop offset=".01" stop-color="#e5e5e5"/>
			<stop offset=".04" stop-color="#c9c9c9"/>
			<stop offset=".07" stop-color="#b2b3b3"/>
			<stop offset=".11" stop-color="#a2a3a3"/>
			<stop offset=".15" stop-color="#999a9a"/>
			<stop offset=".2" stop-color="#969797"/>
			<stop offset=".26" stop-color="#a5a6a6"/>
			<stop offset=".38" stop-color="#cccdcd"/>
			<stop offset=".51" stop-color="#fff"/>
			<stop offset=".63" stop-color="#fff"/>
			<stop offset=".78" stop-color="#c7c8c8"/>
			<stop offset=".93" stop-color="#949696"/>
			<stop offset="1" stop-color="#818383"/>
		</linearGradient>
	</defs>
	<path d="M840.06 390.92s14-12.77-3.86-32.07c-10.58-11.41-38.68-20.88-77.41-27.4l-5.89 16.27c-2.36 7.56-9.1 23.85-9.1 23.85a26.65 26.65 0 0 1 12.57-9.57c8.51-3.11 29.7.86 41.59 13.13s26.08 21.11 35.6 19.38a15.93 15.93 0 0 0 6.5-3.59ZM169.71 393.78l5.75 44.13s-6.41-13.48-18.72-12.78c0 0-11.94.68-17.27 15.83 0 0-2.35 7.48-5.19 12 0 0-5.77 8.35-13.22 6.06a18.61 18.61 0 0 1-6.59-3.53c-11-8.46-5.91-24.54 19.61-42a315.58 315.58 0 0 1 35.65-19.7" fill="#d7282f" transform="translate(-9.42 -40.52)"/>
	<path d="M920.68 232.16s39.84 5.23 80.48 27.45c38.72 21.19 55.89 44.1 55.89 44.1l-85.86 38.23s11.78 61.5 16.69 87.25 9.43 59.2 9.43 59.2-21.54-63.74-94.78-82.95c-32.44-8.53-63.38-3.55-85.13-1.43-8.84.83-8.08 2-35.38 5-32.83 3.59-47.42-20.14-38.22-37.33a26.65 26.65 0 0 1 12.57-9.68c8.51-3.11 29.7.86 41.59 13.13s26.08 21.11 35.6 19.38a15.93 15.93 0 0 0 6.5-3.55c6.32-6.22 14.52-12.31 25.56-48.39 12.44-40.78 36.64-80.2 55.12-110.4M90.34 292.67s-23.57 10.46-39.71 20.58c-28 17.49-39.2 31.5-39.2 31.5l45.1 42.64L21 494.28s33.43-35 77.32-32.27c25.34 1.6 45.48 13.57 66.91 4.71 10.73-4.44 13.56-21 10.23-28.84 0 0-6.4-13.48-18.71-12.78 0 0-11.95.68-17.28 15.83 0 0-2.34 7.48-5.18 12 0 0-5.77 8.34-13.22 6.05a18.68 18.68 0 0 1-6.6-3.54s-17.78-12.71-22.56-62.24c-3.11-32.7-2.48-46.43-1.62-100.58" fill="#d7282f" transform="translate(-9.42 -40.52)"/>
	<path d="M169.73 393.75c87.75-40.62 194.15-58.18 305.53-68.63 100-9.39 196.29-8.29 283.56 6.33 66.63 11.16 77.38 27.43 77.38 27.43 17.89 19.3 3.86 32.07 3.86 32.07 6.32-6.22 14.52-12.31 25.56-48.39 14.06-45.94 42.91-90.16 61.81-121.4 18.21-30.07 46.36-49.68 7.45-74.35s-167-97.39-369.74-89.37c-212.67 8.42-378.36 93.33-426.28 120.91-47.7 27.48-47.18 33-48.2 98.91-.67 44.13-3 79.77.76 115.34 5.26 50.56 23 62.88 23 62.88-11-8.45-5.91-24.54 19.61-42a310.78 310.78 0 0 1 35.7-19.73Z" fill="#d7282f" transform="translate(-9.42 -40.52)"/>
	<g style="isolation:isolate;mix-blend-mode:multiply;">
		<g clip-path="url(#logo-cp-01)">
			<path d="M103.18 393.36h72.61v68.27h-72.61z" fill="url(#logo-lg-01)" transform="rotate(-.57 -3938.102 1355.532)"/>
		</g>
	</g>
	<g style="isolation:isolate;mix-blend-mode:multiply;">
		<g clip-path="url(#logo-cp-02)">
			<path d="M743.48 330.9h110.93v65.88H743.48z" fill="url(#logo-lg-02)" transform="rotate(-.57 -3274.348 1291.485)"/>
		</g>
	</g>
	<g style="isolation:isolate;mix-blend-mode:multiply;">
		<g clip-path="url(#logo-cp-03)">
			<path d="M85.54 44.96H975.8v414.91H85.54z" fill="url(#logo-lg-03)" transform="rotate(-.57 -3544.192 1179.57)"/>
		</g>
	</g>
	<g style="isolation:isolate;mix-blend-mode:multiply;">
		<g clip-path="url(#logo-cp-04)">
			<path d="M733.33 230.55h324.99V490H733.33z" fill="url(#logo-lg-04)" transform="rotate(-.57 -3177.83 1287.945)"/>
		</g>
	</g>
	<g style="isolation:isolate;mix-blend-mode:multiply;">
		<g clip-path="url(#logo-cp-05)">
			<path d="M10.43 291.81h169.31v203.3H10.43z" fill="url(#logo-lg-05)" transform="rotate(-.57 -3982.165 1322.141)"/>
		</g>
	</g>
	<path d="M240.21 300.39c8.59-6.48 21.4-22.07 21.17-32.77-.05-2.23-.92-4.52-3.56-4.15-8.08 1.15-16.57 29.7-17.61 36.92Zm-16.91 15.38c-.42-18.16 13.48-58.8 35.33-61.93 7.26-1 11.4 3.42 11.62 10.5.29 13.48-18.23 37.62-30.47 43.8a41.74 41.74 0 0 0-.81 8.64c.21 9.06 4 14.21 13.48 12.84 13.48-1.92 21.71-11.41 29.61-23.07 2.07-3.11 2.38-2.75 3.93-2.44 1.2.25 1.87 3.68 1.91 5.11.07 2.62 1.43 1.21-2.07 5.8-10.65 13.89-22.82 22.62-39.41 25-16 2.27-22.78-9.95-23.12-24.25Z" fill="#1c1b1a" transform="translate(-9.42 -40.52)"/>
	<path d="M258.41 265.06h-.29c-5.36.76-12.63 19.93-15.34 31.1 8.11-7.45 17.23-20.05 17-28.49-.05-.99-.26-2.62-1.37-2.61ZM238 304l.58-3.93c.79-5.38 9.07-36.88 19-38.3.25 0 .5-.05.73-.05 2.8 0 4.6 2.18 4.68 5.78.26 11.15-12.75 27.24-21.83 34.12Zm22.52-48.73a15.83 15.83 0 0 0-1.68.13c-20.34 2.92-34.37 41.38-33.93 60.27.12 5.44 1.79 23.09 17.95 22.92a23.89 23.89 0 0 0 3.28-.23c15.07-2.16 27.26-9.91 38.37-24.36a29 29 0 0 0 2.07-2.87v-.12a6.94 6.94 0 0 1-.26-1.81 9.54 9.54 0 0 0-.89-3.59 4.72 4.72 0 0 1-.53-.11c-.08 0-.37.35-1.42 1.91-7 10.37-15.79 21.65-30.72 23.78a20 20 0 0 1-2.89.23c-5.54.06-12.18-2.45-12.44-14.64a43.45 43.45 0 0 1 .83-9l.15-.78.73-.37c11.91-6 29.85-29.82 29.56-42.33-.21-5.73-3.17-9.05-8.16-8.99Zm-17.63 86.58c-12.72.14-20.86-9.87-21.24-26.08-.4-17.77 13.06-60.19 36.72-63.57 8-1.13 13.29 3.69 13.48 12.06.31 13.78-17.47 37.72-30.63 44.92a38.42 38.42 0 0 0-.65 7.49c.24 10.37 5.35 11.53 9.18 11.51a22.68 22.68 0 0 0 2.46-.21c12.29-1.74 20-9.87 28.49-22.38 1.35-2 2.36-3.31 4.08-3.32a5.28 5.28 0 0 1 1.25.15l.27.06c3 .61 3.21 6.6 3.21 6.64a3.74 3.74 0 0 0 .15 1c.47 1.75 0 2.48-2.57 5.78-11.66 15.19-24.53 23.32-40.44 25.6a26.48 26.48 0 0 1-3.74.39Z" fill="#1c1b1a" transform="translate(-9.42 -40.52)"/>
	<path d="M335.17 256c8-25.63 19.07-69.32 16.14-93.58-.12-1-.66-5.47-2.67-4.8-1.22.39-2.27 2.15-3 3.21C336.4 176 332.9 237.2 334.93 254c.06.63.22 1.41.22 2Zm-46.46 56c.18 1.36.48 3.91 2.48 3.25 8.47-2.8 28-31.79 30.83-39.63-1-5.55-1.75-11-2.43-16.7-18.12 5.95-32.84 36.81-30.88 53.08Zm2.29 12.21c-8.67 2.87-13.48-7.76-14.3-14.4-1.82-15 3.71-33.55 14.2-47.18 4-5.18 11.41-11.66 17.42-13.66 4-1.31 7.84-.94 10.82 1.12-2.7-22.28 1.84-75 16.92-95.86 2.5-3.46 6.34-8.19 10.37-9.51 9.66-3.17 13 10.57 13.83 17.41 3.31 27.39-11.84 80.77-21.95 109.71.68 5.69 4.06 30.2 12.32 27.48 11.89-3.9 23.21-26.35 27.77-37.22 1-2.32 2.87-7.45 5.49-8.29 2.42-.8 3.11 1.41 3.31 3.18.36 2.93-1.5 6.59-2.84 9.48-7.15 15.36-18.41 38.36-35.73 44.07-13.89 4.58-20.86-13.25-23.93-23-6.46 10.46-21.99 32.83-33.7 36.67Z" fill="#1c1b1a" transform="translate(-9.42 -40.52)"/>
	<path d="M348.86 159.31a11.29 11.29 0 0 0-1.57 2.07l-.28.41c-8.09 13.33-11.67 63.39-10.92 85.58 8.57-29.15 16-64.55 13.6-84.69a8.75 8.75 0 0 0-.83-3.37Zm-12.15 97.18-3.16-.28-.24-2c-2.07-17.3 1.39-78.49 11-94.26l.29-.45c.83-1.25 1.95-2.94 3.55-3.45a2.59 2.59 0 0 1 .87-.17c3.11 0 3.74 4.73 3.94 6.3 2.68 22.63-6.62 63.54-16.25 94.31Zm-18.48 4.66c-16.91 7.25-29.66 36.13-27.9 50.62a8.13 8.13 0 0 0 .38 1.89c7.49-2.72 26.21-29.51 29.63-38.21-.93-4.78-1.54-9.59-2.11-14.3ZM290.61 317c-2.91 0-3.34-3.44-3.5-4.77-2.16-17.82 13.57-48.73 32-54.82l1.88-.64.25 2c.67 5.71 1.31 11.07 2.41 16.59l.09.44-.16.42c-3 8.29-22.69 37.6-31.84 40.63a3.77 3.77 0 0 1-1.13.15Zm22.2-67.14a13.31 13.31 0 0 0-4 .71c-5.69 1.88-12.82 8.14-16.65 13.09-10.2 13.25-15.63 31.31-13.87 46 .68 5.47 4.28 13.54 9.94 13.48a7.31 7.31 0 0 0 2.26-.4c9.73-3.23 23.76-21.41 32.8-36l1.88-3 1 3.4c4.72 15.08 10.81 22.69 18.13 22.62a13.24 13.24 0 0 0 3.74-.66c17.29-5.69 28.66-30.07 34.77-43.23l.33-.73c1.17-2.52 2.63-5.63 2.36-7.86-.11-.93-.41-1.93-.77-1.93a1.5 1.5 0 0 0-.43.1c-1.71.54-3.5 4.95-4.26 6.8l-.22.57c-2.34 5.56-14.67 33.51-28.77 38.14a5.54 5.54 0 0 1-1.72.29c-8 .09-11.4-18.21-12.73-29.1v-.37l.12-.36c9.68-27.68 25.16-81.78 21.87-109-.91-7.64-4-16.5-9.51-16.45a7.06 7.06 0 0 0-2.19.39c-4.07 1.34-8.22 7-9.56 8.93-14.92 20.59-19.25 73-16.59 94.71l.43 3.62-3-2.08a9.08 9.08 0 0 0-5.36-1.73Zm-24.5 76.53c-8.18.08-12.45-10-13.22-16.32-1.85-15.5 3.86-34.49 14.52-48.38 4.24-5.48 11.84-12.09 18.19-14.21a14.44 14.44 0 0 1 9.43-.11c-2-23.67 2.78-73.69 17.51-94 2.62-3.63 6.63-8.6 11.18-10.11a11 11 0 0 1 3.17-.56c9.68-.09 12.23 14.77 12.79 19.32C366 195.7 343.21 262.78 340 272c1.87 15.29 5.74 25.93 9.41 25.86a2 2 0 0 0 .73-.12c9.9-3.24 20.61-21.59 26.78-36.29l.22-.55c1.57-3.87 3.36-7.74 6.22-8.68a4.56 4.56 0 0 1 1.41-.26c1.3 0 3.54.6 4 4.79.37 3.11-1.3 6.75-2.64 9.63l-.33.71c-6.33 13.59-18.08 38.82-36.71 44.95a15.46 15.46 0 0 1-4.72.83c-8.3.08-15.08-7.19-20.19-21.63-5.76 8.94-20.73 30.56-32.71 34.51a11.07 11.07 0 0 1-3.16.59ZM514.47 163.48c1 35.9-45.42 73.25-77.83 83.65 17.63 9.95 38.59 15.06 59.25 18a30.21 30.21 0 0 0 6.7.71c2.74.09 13.07-1.95 13.18 2.14.24 7.26-5.06 13.1-12.45 14.19-13.08 1.94-63.79-12.78-75.12-19.31-2.07 6.83-2.42 19.46-2.22 26.43.26 8.68 2.65 13.88-6.85 19.88a15.76 15.76 0 0 1-5.62 2.07c-5.19.76-6.56-3.62-6.68-7.71-1.41-48.42 1.22-85.81 12.67-134.68 1.52-6.75 4.78-22.72 11.09-27a15.85 15.85 0 0 1 6.37-2.15c5.94-.88 10.44.62 10.62 6.87s-6 23.16-7.77 30.69a365.26 365.26 0 0 0-9.82 62.9c27.44-10.62 69.6-34.54 68.63-67.53-.84-28.91-37.79-39.14-63-37.81-4.2.13-18.26 2.45-18.43-3.8a11.66 11.66 0 0 1 .87-4c2.53-6.43 4.24-7.16 10.92-8.15 2.7-.4 5.42-.56 8.14-.73 31.88-1.14 76.25 8.01 77.35 45.34Z" fill="#1c1b1a" transform="translate(-9.42 -40.52)"/>
	<path d="M439.71 141.12a19 19 0 0 0-2.5.2 14.19 14.19 0 0 0-5.73 1.87c-5.4 3.7-8.57 17.95-10.12 24.77l-.28 1.27c-10.72 45.78-14.15 82.18-12.63 134.28.18 6.23 3 6.23 4 6.23a6 6 0 0 0 .84-.09 14.39 14.39 0 0 0 5.07-1.84c7-4.45 6.75-7.92 6.22-14.27-.09-1.33-.2-2.66-.23-4.15-.18-6.1.07-19.58 2.27-27l.57-2 1.79 1c10.42 6 56 19.44 71.8 19.29a19.26 19.26 0 0 0 2.28-.16c6.6-1 11.27-6.22 11.08-12.53 0-.53-1.38-1-4.41-1-1.48 0-3 .15-4.35.27-1 .11-1.88.16-2.54.17h-.31a1.48 1.48 0 0 1-.42 0 35.77 35.77 0 0 1-6.52-.73c-24.78-3.56-44.28-9.5-59.72-18.21l-3.22-1.84 3.55-1.13c31.93-10.25 77.7-47.28 76.68-82-1-32.87-37.9-44.22-72.16-43.87l-3.53.08c-2.64.17-5.35.33-8 .72-6.32.93-7.38 1.44-9.64 7.13a10.78 10.78 0 0 0-.75 3.36c.07 2.34 4.43 2.8 8.07 2.76 2.13 0 4.29-.2 6-.35 1-.09 2-.16 2.65-.19 1.14 0 2.33-.1 3.53-.11 24.14-.25 60.33 10.07 61.18 39.48 1.13 38.67-53 62.67-69.68 69.08l-2.37.93.17-2.55a369.49 369.49 0 0 1 9.84-63.17c.6-2.55 1.7-6.22 2.89-10 2.21-7.26 5-16.3 4.84-20.2s-2-5.62-6.21-5.5ZM412.45 313c-4.42 0-7.07-3.39-7.26-9.33-1.52-52.43 1.91-89.05 12.72-135.1l.26-1.26c1.78-7.81 5-22.35 11.49-26.76a18 18 0 0 1 7.06-2.44c7.85-1.17 12.28 1.93 12.45 8.46.13 4.44-2.6 13.37-5 21.23-1.16 3.81-2.25 7.39-2.84 9.86a366.42 366.42 0 0 0-9.58 60.07c32.51-13.06 66-36.68 65.2-65-.8-27.08-35.06-36.57-57.9-36.29-1.16 0-2.3.08-3.42.12-.66 0-1.53.09-2.52.17-1.8.16-4 .34-6.23.35-7.41.09-11.22-1.9-11.4-5.88a12.72 12.72 0 0 1 1-4.6c2.86-7.26 5.32-8.2 12.2-9.22 2.78-.4 5.56-.59 8.29-.72 1.26-.06 2.48-.07 3.68-.08 35.8-.37 74.43 11.79 75.44 47 .49 16.59-9.05 35.25-26.86 52.59-14 13.67-32.3 25.46-48.54 31.41 14.51 7.55 32.69 12.83 55.44 16.13a31.43 31.43 0 0 0 6.41.68h.3c.52 0 1.34-.08 2.28-.16 1.36-.13 3-.26 4.61-.27 5-.06 7.61 1.33 7.69 4.14.25 7.94-5.59 14.61-13.86 15.85a22.58 22.58 0 0 1-2.71.19c-15.76.16-58.07-12.09-71.55-18.74-1.63 7.26-1.8 18.66-1.64 24 0 1.41.15 2.74.24 4 .5 6.58.89 11.77-7.84 17.29a18.25 18.25 0 0 1-6.22 2.3c-.55-.05-.92.01-1.39.01Z" fill="#1c1b1a" transform="translate(-9.42 -40.52)"/>
	<path d="M553.87 180.31c-1.11 5.18-6.47 10.24-11.89 9.8-4.2-.34-6.1-4.15-5.24-8.2 1-5 6.22-10.27 11.66-9.82 4.22.39 6.31 4.22 5.47 8.23Zm-25.79 84c10.87.91 31.37-20.74 38.62-28.94 1.57-1.7 4-4.76 6.69-4.53s2.08 2.61 1.68 4.62c-.56 2.6-5.49 7.68-7.57 9.76-9.91 10.16-31.46 30-45.75 28.74-15.88-1.33-13.56-24.14-11.13-35.75 1.55-7.42 5.7-17.45 9.39-24.28 3.91-7 8.7-12.28 17.16-11.58 3 .25 4.39 1.58 3.72 4.77-1.15 5.43-7.82 14.83-10.5 20.74a96 96 0 0 0-5.54 17.63c-.98 4.62-3.61 18.24 3.23 18.81Z" fill="#1c1b1a" transform="translate(-9.42 -40.52)"/>
	<path d="M547.72 173.71c-4.35 0-8.55 4.57-9.33 8.56a5.69 5.69 0 0 0 .77 4.66 4 4 0 0 0 3 1.57c4.35.36 9.16-3.79 10.16-8.54a5.67 5.67 0 0 0-.82-4.56 4.28 4.28 0 0 0-3.18-1.68c-.24 0-.45-.02-.6-.01Zm-4.94 18a6.76 6.76 0 0 1-.9 0 7.21 7.21 0 0 1-5.36-2.86 9 9 0 0 1-1.35-7.26c1.17-5.59 7-11.66 13.41-11.11a7.64 7.64 0 0 1 5.52 3 9 9 0 0 1 1.4 7.18c-1.17 5.3-6.53 11-12.75 11.08Zm-7.26 12.15c-5.67.06-9.89 3.28-14.1 10.82-3.32 6.13-7.62 16.22-9.21 23.8-1.33 6.39-3.82 22 1.86 29.65a10.17 10.17 0 0 0 7.83 4.14h1.27c14.6-.14 36.73-21.7 43.16-28.31 6.22-6.22 7-8.43 7.14-9a6.5 6.5 0 0 0 .24-2.56 1.52 1.52 0 0 0-.46-.1c-1.6-.12-3.58 2.08-4.88 3.48l-.49.56c-7.82 8.8-27.31 29.35-39 29.47H528a5.65 5.65 0 0 1-4.15-2.3c-2.3-3.11-2.47-9.14-.52-18.45a98.12 98.12 0 0 1 5.63-17.95 89.09 89.09 0 0 1 4.31-8c2.53-4.37 5.41-9.33 6.07-12.44a3.1 3.1 0 0 0-.12-2.08A3 3 0 0 0 537 204c-.47-.08-1-.09-1.48-.09Zm-12.31 71.73c-.52 0-1 0-1.58-.05a13.56 13.56 0 0 1-10.18-5.45c-6.22-8.36-4.15-23.85-2.4-32.28 1.65-7.93 6-18.13 9.54-24.69 3.22-5.8 8.07-12.45 16.9-12.52.61 0 1.22 0 1.83.07a5.78 5.78 0 0 1 4.48 2.08 5.72 5.72 0 0 1 .66 4.7c-.76 3.62-3.63 8.57-6.42 13.41-1.63 2.81-3.18 5.5-4.15 7.64a93.29 93.29 0 0 0-5.43 17.32c-2.14 10.29-1.21 14.31-.06 15.86a2.32 2.32 0 0 0 1.83 1 3.21 3.21 0 0 0 .62 0c8.49-.09 24.48-14.75 36.64-28.42l.49-.58c1.82-2 4.39-4.78 7.54-4.51a3.73 3.73 0 0 1 2.78 1.4c1.15 1.49.71 3.52.38 5.19-.48 2.19-3.11 5.65-8 10.6-8.52 8.73-30.07 29.13-45.45 29.28Z" fill="#1c1b1a" transform="translate(-9.42 -40.52)"/>
	<path d="M623.41 225.24C621 241 611.35 257.06 598.7 267.75c-6.72 5.76-16 11.22-24.58 11-18.67-.52-17.3-26.46-15.2-40.33 4.9-32.42 17.84-64.79 31.36-95.56 4.31-9.9 8.65-20 13.92-29.68 3.62-6.67 5.77-8.85 12.84-11.73a19.27 19.27 0 0 1 7.27-1.8c3 .08 3.9 2.15 3.47 5-.86 5.72-6.07 14.8-8.86 20-13.08 24-25.2 49.7-33.14 75.45-3.95 12.8-8.75 25.92-10.72 39-.93 6.12-4.49 31 5.52 31.26 3.39.1 6.76-2.26 9.33-4.44 8.94-7.33 19.15-24.25 20.81-35.26 2-13.25-5.69-18.16-17.49-18.5-2.41-.06-4.09-3.59-3.74-5.82.62-4.09 5.07-5.59 8.5-5.72 4-.09 7.83 0 11.86-.07 8.08-.2 16.1-1.4 24.18-1.78h.62a3.92 3.92 0 0 1 4.15 4.43c-.77 5.09-13.61 6.38-17.48 6.69a25.23 25.23 0 0 1 2.09 15.35Z" fill="#1c1b1a" transform="translate(-9.42 -40.52)"/>
	<path d="M624 101.21a18.74 18.74 0 0 0-6.39 1.73c-6.83 2.78-8.61 4.73-12 11-5 9.14-9.19 18.77-13.23 28.1l-.65 1.47c-13.35 30.41-26.37 62.94-31.26 95.15-1.38 9.28-2.73 26 4 34a12.3 12.3 0 0 0 9.68 4.43c9.74.27 19.7-7.38 23.48-10.61 12.67-10.68 21.9-26.58 24.17-41.47a23.89 23.89 0 0 0-1.92-14.45l-1-2.15 2.41-.21c9.21-.71 15.63-2.85 16-5.31a2 2 0 0 0-.51-1.7 2.35 2.35 0 0 0-1.82-.83H634c-3.45.17-7.09.5-10.62.83-4.41.42-8.95.85-13.48 1h-11.83c-.64 0-6.32.3-6.92 4.3a4.69 4.69 0 0 0 1 3.26 1.81 1.81 0 0 0 1.12.73c7.54.19 13 2.21 16.14 6 2.86 3.46 3.87 8.3 2.92 14.37-1.65 11.15-11.86 28.47-21.33 36.3-2.44 2.07-6.22 4.94-10.37 4.82a6.75 6.75 0 0 1-5.11-2.52c-4.63-5.52-3.61-19.7-2-30.63 1.58-10.44 5-21 8.22-31.16.86-2.71 1.74-5.41 2.56-8.09 7-22.68 17.85-47.47 33.27-75.69.32-.6.67-1.29 1-2 2.75-5.09 6.91-12.76 7.64-17.53a3.64 3.64 0 0 0-.32-2.59 2.06 2.06 0 0 0-1.58-.55Zm-49.15 179.17H574a15.57 15.57 0 0 1-12.1-5.57c-7.5-9-6.13-26.8-4.64-36.63 4.92-32.54 18-65.33 31.47-96l.62-1.46c4.09-9.4 8.3-19.12 13.37-28.37 3.69-6.75 6-9.33 13.65-12.44 2.55-1 5.26-2.08 8-1.95a5 5 0 0 1 4 1.63 6.39 6.39 0 0 1 1 5.19c-.81 5.31-5 13-8 18.56-.38.69-.73 1.35-1 2-15.31 28.09-26.1 52.65-33 75.16-.81 2.67-1.69 5.39-2.55 8.1-3.23 10.08-6.59 20.49-8.12 30.67-2.16 14.27-1.71 24.51 1.26 28.06a3.47 3.47 0 0 0 2.68 1.34h.23c2.21 0 4.84-1.36 8-4.07 8.86-7.26 18.67-23.85 20.27-34.22.78-5.12 0-9.08-2.21-11.77-2.55-3-7.16-4.69-13.73-4.87a4.87 4.87 0 0 1-3.54-1.88 7.75 7.75 0 0 1-1.74-5.83c.74-5 5.87-6.93 10-7.07h11.88c4.42-.11 8.92-.53 13.26-.93 3.56-.34 7.26-.69 10.9-.86h.87a5.64 5.64 0 0 1 4.33 1.93 5.45 5.45 0 0 1 1.27 4.34c-.77 5-9 7-16.69 7.87a27.94 27.94 0 0 1 1.26 14.26c-2.36 15.67-12.06 32.34-25.28 43.49-3.96 3.31-14.27 11.2-24.87 11.32ZM700.35 227.38c-3.31 15.65-14 31.24-27.16 41.28-7 5.36-16.59 10.3-25 9.53-18.41-1.67-15.47-27.69-12.51-41.48 6.92-32.29 21.78-64.09 37.11-94.16 4.91-9.7 9.84-19.62 15.69-29 4-6.46 6.3-8.54 13.48-11 2.41-.82 5-1.63 7.37-1.42 3 .26 3.73 2.41 3.11 5.24-1.25 5.68-7 14.52-10.09 19.6-14.51 23.32-28.1 48.4-37.59 73.83-4.71 12.62-10.36 25.56-13.08 38.57-1.31 6.09-6.43 30.89 3.47 31.77 3.37.31 6.85-1.85 9.52-3.9 9.33-6.82 20.48-23.18 22.82-34.16 2.83-13.21-4.48-18.67-16.16-19.7-2.37-.2-3.79-3.85-3.32-6.09.88-4.06 5.39-5.31 8.78-5.18 4 .16 7.75.49 11.75.66 8 .3 16-.42 24.07-.32l.61.06a3.92 3.92 0 0 1 3.83 4.7c-1 5.07-13.9 5.57-17.74 5.63a26 26 0 0 1 1.04 15.54Z" fill="#1c1b1a" transform="translate(-9.42 -40.52)"/>
	<path d="M708.36 102.65a20.27 20.27 0 0 0-6 1.36c-6.95 2.37-8.81 4.22-12.58 10.31-5.54 8.89-10.37 18.36-14.93 27.51l-.68 1.36c-15.12 29.71-30.07 61.62-37 93.78-2 9.33-4.41 26.13 1.8 34.59a12.17 12.17 0 0 0 9.25 4.93c6.75.61 15.56-2.8 23.92-9.21 13.18-9.95 23.39-25.38 26.56-40.25a24.49 24.49 0 0 0-1-14.68l-1-2.2h2.42c9.17-.16 15.66-1.92 16.18-4.36a2.14 2.14 0 0 0-.3-1.79 2.36 2.36 0 0 0-1.81-.89h-.66c-3.54-.06-7.12.07-10.61.17-2.46.06-5 .16-7.52.19-2.18 0-4.15 0-5.92-.07-2.07-.08-4-.22-5.94-.34s-3.84-.23-5.83-.33h-.4c-1 0-5.9.24-6.7 3.95a4.8 4.8 0 0 0 .85 3.38 1.77 1.77 0 0 0 1 .73c7.38.69 12.62 3 15.55 7 2.67 3.63 3.36 8.56 2.08 14.68-2.39 11.14-13.59 27.9-23.48 35.12-2.51 1.94-6.49 4.59-10.62 4.23a6.57 6.57 0 0 1-4.85-2.79c-4.29-5.83-2.42-20.06-.06-31 2.24-10.37 6.22-20.81 10.14-30.87l3-7.93c8.3-22.42 20.74-46.66 37.73-74.1l1.14-1.86c3.05-5 7.68-12.44 8.71-17.23a3.58 3.58 0 0 0-.16-2.65 2.13 2.13 0 0 0-1.52-.64 4.11 4.11 0 0 0-.76-.1Zm-58.2 177.19a16 16 0 0 1-2.19-.09 15.42 15.42 0 0 1-11.56-6.23c-7-9.46-4.48-27.36-2.36-37.19 7-32.5 22-64.64 37.25-94.55l.69-1.37c4.64-9.21 9.46-18.74 15.07-27.77 4.08-6.56 6.57-9 14.31-11.67 2.56-.87 5.36-1.74 8-1.49a5.26 5.26 0 0 1 3.85 1.93 6.51 6.51 0 0 1 .71 5.29c-1.13 5.32-5.74 12.78-9.11 18.23l-1.14 1.86c-16.94 27.29-29.19 51.34-37.46 73.53-1 2.65-2 5.31-3 8-3.86 9.91-7.84 20.19-10 30.35-3.12 14.3-3.24 24.62-.49 28.36a3.23 3.23 0 0 0 2.52 1.47c2.32.23 5-.95 8.39-3.57 9.23-6.74 20-22.88 22.24-33.18 1.11-5.14.59-9.21-1.5-12.06-2.34-3.17-6.8-5.07-13.22-5.66a4.71 4.71 0 0 1-3.37-2.07 8 8 0 0 1-1.4-6c1-4.95 6.22-6.62 10.43-6.48 2.07.07 4 .18 5.91.31s3.86.26 5.87.35c1.75 0 3.64.07 5.75 0 2.49 0 5-.09 7.45-.19 3.52-.1 7.19-.23 10.81-.18l.67.06a5.53 5.53 0 0 1 5.32 6.67c-1 5-9.41 6.49-17 6.84a28.76 28.76 0 0 1 .39 14.42c-3.37 15.55-14 31.76-27.8 42.17-4.83 3.64-14.3 9.81-24.03 9.91ZM718.94 250c-1.75 6.46-2.72 16.81 5.28 18 3.3.49 6.93-.87 10-2.52 11.89-6.43 20-20.74 23.38-33 1.79-6.67 3.11-18.43-5.26-19.71-14.64-2.17-30.14 25.11-33.4 37.23Zm37-50.56c14.45 2.14 14.16 18.22 10.89 30.35-4.8 17.74-16.09 36.23-33.71 44.34-5.31 2.35-11.2 3.8-16.67 3C702.41 275 701.71 259.6 705 247.5c5.45-20.19 27.74-51.5 51-48.06Z" fill="#1c1b1a" transform="translate(-9.42 -40.52)"/>
	<path d="M750.58 214.26c-12.44.13-26.73 23.85-30.07 36.17-1.59 5.94-1.52 11 .19 13.68a5 5 0 0 0 3.75 2.26 7.85 7.85 0 0 0 1.28.07 17.57 17.57 0 0 0 7.75-2.39c12-6.5 19.7-21.33 22.55-32.06 1.38-5.19 2.07-11.88-.18-15.33a5.09 5.09 0 0 0-3.73-2.3 11.28 11.28 0 0 0-1.54-.11Zm-24.82 55.44a11.69 11.69 0 0 1-1.77-.11 8.33 8.33 0 0 1-6-3.71c-3.21-4.9-1.49-13-.62-16.31 2.84-10.57 17.36-38.37 33.17-38.57a16 16 0 0 1 2.08.15 8.19 8.19 0 0 1 6 3.74c3.48 5.31 1.58 14.32.61 18-3.22 11.89-11.27 27.08-24.16 34.07a20.31 20.31 0 0 1-9.31 2.74Zm26.36-68.9c-20.4.2-40.32 27.6-45.63 47.14-2.43 9-2 17.32 1.21 22.17a12.2 12.2 0 0 0 9 5.38c4.58.69 10-.29 15.75-2.87 15.06-6.93 27.33-23.11 32.8-43.27 1.25-4.63 3.68-16.19-.85-23.14a12 12 0 0 0-8.7-5.19 24.11 24.11 0 0 0-3.5-.22ZM719.85 279a23.67 23.67 0 0 1-3.67-.26 15.5 15.5 0 0 1-11.2-6.8c-5.32-8.12-2.89-20.08-1.6-24.83 5.56-20.53 26.77-49.31 48.74-49.54a28.91 28.91 0 0 1 4 .28 15.08 15.08 0 0 1 11 6.61c5.1 7.75 3 19.48 1.27 25.79-5.71 21.06-18.66 38-34.61 45.38a35.35 35.35 0 0 1-13.93 3.37ZM759.13 284.27c6.75-19.54 19.18-39.9 29.61-58.16 3.26-5.9 6.42-12.06 9.9-17.93 2.62-4.57 9.62-8.13 14.39-7.06 4.37 1 4.81 3.89 3.38 8.06-2.34 6.77-7.85 14.33-12.34 20.19A121.87 121.87 0 0 0 791 251.09c8.69-7.26 35.55-30.17 45.46-27.93 7.82 1.8 3.64 15.66 1.71 21.23-3.24 9.33-7.16 18.34-10.41 27.71-1.57 4.57-3.94 12 2 13.32 10.13 2.28 28.44-13.75 35.54-21.15 1.57-1.59 4.21-4.41 6.49-3.91 1.92.44 2.49 2.93 1.87 4.74a20.76 20.76 0 0 1-2.72 3.67c-9.81 11.07-34 28.78-48.35 25.54-13.17-3-8.3-19.28-4.82-29.42 2.6-7.56 6-15 8.62-22.53.34-1 1.17-4-.34-4.38s-4.2 1.41-5.51 2.2c-8.54 4.94-17.44 12.82-24.72 19.53a324.69 324.69 0 0 0-24.38 25.83c-2.64 2.85-6.41 5.43-10 4.6-2.72-.61-3.22-3.29-2.31-5.87Z" fill="#1c1b1a" transform="translate(-9.42 -40.52)"/>
	<path d="M825.62 236.32a4.37 4.37 0 0 1 .72.06 2.66 2.66 0 0 1 1.72 1.31c.86 1.53.25 3.91-.19 5.19-1.33 3.83-2.85 7.65-4.35 11.33s-3 7.45-4.28 11.2c-1.74 5.07-5.86 16.93-2.38 23.15a8.53 8.53 0 0 0 6 4.15 16.17 16.17 0 0 0 3.54.35c13.48-.14 34.15-15.11 43.25-25.39.19-.26.39-.5.6-.74a16.25 16.25 0 0 0 1.8-2.41 2.93 2.93 0 0 0-.14-2.08.89.89 0 0 0-.56-.46c-1.34-.32-3.53 2-4.68 3.11l-.31.32c-7.16 7.49-23.64 21.77-34.46 21.85a11.16 11.16 0 0 1-2.57-.26 6.17 6.17 0 0 1-4.15-3c-1.87-3.35-.44-8.19 1-12.44 1.64-4.71 3.45-9.34 5.18-13.88s3.6-9.16 5.19-13.83c2.85-8.3 3.51-14.37 1.89-17.29a3.39 3.39 0 0 0-2.43-1.8 4.15 4.15 0 0 0-1.21-.12c-9.93.09-33.09 19.52-41.82 26.83l-1 .88-2.51-1.95a120.92 120.92 0 0 1 13.31-22.06c4.73-6.22 9.88-13.35 12.09-19.7.7-2.08.82-3.61.34-4.5a3.64 3.64 0 0 0-2.54-1.44 6 6 0 0 0-1.58-.17 14.43 14.43 0 0 0-11 6.44c-2.24 3.78-4.37 7.69-6.42 11.52-1.16 2.15-2.33 4.28-3.49 6.39L786.1 234c-9.62 16.67-19.58 33.93-25.42 50.81a3.89 3.89 0 0 0 0 3 1.54 1.54 0 0 0 1.15.78c2.44.57 5.59-1 8.48-4.15 8.29-9.46 15.86-18 24.46-25.92 7.56-7 16.4-14.78 25-19.7 1.85-1.26 4.09-2.48 5.85-2.5Zm.83 60a18.07 18.07 0 0 1-4.28-.41 11.76 11.76 0 0 1-8.17-5.75c-3.67-6.61-1-16.75 2.15-25.81 1.33-3.79 2.85-7.64 4.35-11.32s3-7.45 4.28-11.2a6.84 6.84 0 0 0 .45-2.19 18.63 18.63 0 0 0-3.9 1.93c-8.29 4.84-17 12.44-24.42 19.35-8.5 7.82-16 16.29-24.25 25.71-1.82 2-5.5 5.26-9.77 5.3a8.09 8.09 0 0 1-1.84-.18 4.88 4.88 0 0 1-3.26-2.38 7.08 7.08 0 0 1-.18-5.65c5.92-17.15 16.41-35.32 25.65-51.35 1.37-2.39 2.74-4.74 4.06-7.05 1.16-2.08 2.3-4.22 3.46-6.35 2.07-3.84 4.19-7.8 6.46-11.61a17.57 17.57 0 0 1 13.86-8.06 10.52 10.52 0 0 1 2.3.25 6.62 6.62 0 0 1 4.68 3.05c1 1.76.95 4-.11 7.12-2.37 6.84-7.69 14.27-12.58 20.65a108.87 108.87 0 0 0-9.34 14.41c14.17-11.59 30.08-23.28 38.82-23.36a8.63 8.63 0 0 1 2 .19 6.74 6.74 0 0 1 4.53 3.39c2.07 3.82 1.55 10.55-1.69 19.94-1.64 4.71-3.45 9.39-5.24 13.94s-3.57 9.12-5.18 13.75c-.82 2.43-2.56 7.48-1.27 9.85a2.82 2.82 0 0 0 2.07 1.37 7.52 7.52 0 0 0 1.83.17c9-.1 24.19-12.53 32.15-20.86l.31-.33c1.62-1.63 4.08-4.14 6.74-4.14a6.1 6.1 0 0 1 1 .1 4 4 0 0 1 2.66 2.07 5.93 5.93 0 0 1 .37 4.77 13.82 13.82 0 0 1-2.38 3.44c-.23.27-.46.53-.61.72-9.8 11.06-31.08 26.37-45.71 26.52ZM224.49 235.14c4.77 35.61-37.53 77.62-68.66 91.31 18.57 8.08 39.95 11 60.79 11.77a30.47 30.47 0 0 0 6.75 0c2.72-.18 12.8-3.27 13.35.78 1 7.15-3.67 13.53-10.92 15.41-12.8 3.29-64.77-6-76.73-11.36-1.32 7-.37 19.61.57 26.54 1.15 8.59 4.07 13.53-4.74 20.5a16.17 16.17 0 0 1-5.4 2.6c-5.06 1.31-6.87-2.91-7.43-6.95-6.46-48-7.75-85.47-1.47-135.29.82-6.86 2.39-23.09 8.21-28a16 16 0 0 1 6.12-2.81c5.79-1.49 10.42-.47 11.25 5.73s-3.54 23.59-4.51 31.24a364.49 364.49 0 0 0-3.17 63.59c26.17-13.41 65.6-41.6 61.18-74.33-3.87-28.65-41.69-35-66.65-31-4.15.59-17.9 4.37-18.73-1.84a12 12 0 0 1 .45-4.05c1.86-6.67 3.48-7.57 10-9.26 2.66-.69 5.34-1.12 8-1.59 31.67-4.43 76.75.02 81.74 37.01Z" fill="#1c1b1a" transform="translate(-9.42 -40.52)"/>
	<path d="M149.06 220.6a16.24 16.24 0 0 0-3.74.54 14.07 14.07 0 0 0-5.5 2.52c-5 4.24-6.65 18.66-7.46 25.68l-.15 1.3c-5.89 46.66-5.48 83.16 1.49 134.8.52 3.87 1.91 5.84 4.09 5.82a7.26 7.26 0 0 0 1.31-.19 14.49 14.49 0 0 0 4.86-2.38c6.51-5.19 5.89-8.6 4.74-14.85-.23-1.29-.48-2.63-.67-4.15-.82-6-2-19.45-.56-27l.37-2.08 1.89.85c10.52 4.67 50.81 12.09 69 11.91a30.82 30.82 0 0 0 6.64-.63c6.47-1.66 10.54-7.39 9.71-13.63-.06-.52-1.35-.69-2.53-.67a35.81 35.81 0 0 0-6.27.85c-1.19.22-2.14.41-2.82.47a20.15 20.15 0 0 1-2.69.18c-1.44 0-2.89-.08-4.28-.18-25.05-1-45.13-4.85-61.35-11.9l-3.39-1.47 3.39-1.5c30.71-13.48 72.33-55.15 67.69-89.62-4.4-32.69-40.44-37.22-61.5-37a142.64 142.64 0 0 0-18.35 1.4c-2.56.43-5.27.87-7.86 1.53-6.22 1.61-7.2 2.24-8.84 8.11a10.66 10.66 0 0 0-.4 3.42c.08.54.29 2.15 5.19 2.07a56.87 56.87 0 0 0 9.1-1c1-.2 2-.37 2.62-.46a90.26 90.26 0 0 1 13.24-1.1c23.37-.23 51.85 8.4 55.23 33.49 5.18 38.36-46.19 67.86-62.06 76l-2.2 1.06-.1-2.55a367.43 367.43 0 0 1 3.2-63.85c.32-2.61 1-6.34 1.81-10.29 1.44-7.44 3.23-16.73 2.7-20.58-.49-3.45-2.2-4.95-5.55-4.92Zm-11.25 174c-2.3 0-6.33-1-7.35-8.65-7-52-7.4-88.74-1.48-135.66l.14-1.28c.93-7.95 2.65-22.73 8.62-27.82a18.4 18.4 0 0 1 6.78-3.16c7.67-2 12.44.7 13.28 7.12.59 4.39-1.19 13.55-2.74 21.64-.76 3.88-1.47 7.57-1.78 10.08a366.08 366.08 0 0 0-3.28 60.7c30.95-16.4 61.83-43.37 58.07-71.47-3.11-23-28.88-30.9-52-30.67a85.52 85.52 0 0 0-12.79 1c-.66.09-1.51.26-2.5.45a58.17 58.17 0 0 1-9.66 1.24c-6.42.06-8.13-2.63-8.45-4.93a13 13 0 0 1 .48-4.67c2.08-7.51 4.43-8.7 11.17-10.43 2.73-.7 5.51-1.17 8.18-1.6a144.28 144.28 0 0 1 18.81-1.42c37.7-.39 61.29 14.12 64.75 39.82 2.22 16.43-5.32 36-21.2 55.1-12.52 15.07-29.49 28.7-45 36.3 15.22 6 33.87 9.33 56.83 10.23a31.5 31.5 0 0 0 6.44 0 18.07 18.07 0 0 0 2.56-.44 41.57 41.57 0 0 1 6.85-.89c4.39-.05 5.55 1.86 5.78 3.5 1 7.86-4 15.09-12.13 17.19a32.91 32.91 0 0 1-7.41.72c-17.57.17-55.31-6.59-68.43-11.41-.85 7.38.17 18.66.88 24.06.19 1.39.42 2.68.66 3.95 1.18 6.48 2.08 11.61-6 18a18.21 18.21 0 0 1-6 2.93 8.88 8.88 0 0 1-2.08.43Z" fill="#1c1b1a" transform="translate(-9.42 -40.52)"/>
	<path d="M333.19 249.37c8-25.61 19.07-69.32 16.14-93.55-.12-1-.66-5.49-2.68-4.84-1.21.41-2.24 2.17-3 3.23-9.26 15.25-12.75 76.4-10.73 93.23.06.58.12 1.38.24 1.94Zm-46.46 56c.18 1.37.48 3.89 2.5 3.24 8.45-2.79 28-31.78 30.81-39.61-1-5.55-1.73-11-2.42-16.72-18.14 6.01-32.85 36.84-30.89 53.08Zm2.32 12.24c-8.67 2.86-13.49-7.75-14.32-14.39-1.81-15.08 3.71-33.55 14.21-47.18 4-5.19 11.4-11.69 17.42-13.68 4-1.32 7.85-.95 10.83 1.11-2.71-22.28 1.83-75 16.91-95.87 2.5-3.46 6.33-8.19 10.37-9.51 9.67-3.11 13 10.58 13.83 17.42 3.31 27.4-11.84 80.77-21.95 109.74.68 5.66 4.06 30.18 12.33 27.45 11.88-3.9 23.21-26.33 27.75-37.18 1-2.37 2.87-7.46 5.5-8.3 2.42-.8 3.11 1.43 3.31 3.17.35 2.93-1.5 6.6-2.84 9.48-7.14 15.38-18.4 38.37-35.73 44.1-13.89 4.56-20.87-13.26-23.94-23-6.48 10.41-22 32.79-33.68 36.63Z" fill="#fff" transform="translate(-9.42 -40.52)"/>
	<path d="M346.88 152.7a10.06 10.06 0 0 0-1.56 2l-.29.44c-8.09 13.3-11.68 63.39-10.91 85.58 8.55-29.18 16-64.57 13.6-84.7a9.14 9.14 0 0 0-.84-3.32Zm-12.14 97.19-3.17-.31-.23-1.92c-2.08-17.34 1.38-78.51 11-94.29l.31-.46c.82-1.24 1.94-2.93 3.53-3.45a2.9 2.9 0 0 1 .88-.15c3.16 0 3.73 4.74 3.93 6.31 2.66 22.56-6.64 63.48-16.25 94.27Zm-18.49 4.65c-16.91 7.26-29.65 36.11-27.9 50.62a9.13 9.13 0 0 0 .38 1.87c7.49-2.69 26.21-29.48 29.63-38.19-.91-4.79-1.52-9.45-2.11-14.3Zm-27.62 55.79c-2.92 0-3.36-3.44-3.51-4.77-2.15-17.83 13.58-48.74 32-54.84l1.88-.61.25 2.08c.69 5.66 1.34 11 2.4 16.48l.1.43-.16.41c-3 8.34-22.72 37.62-31.85 40.63a3.73 3.73 0 0 1-1.11.19Zm22.2-67.13a12.93 12.93 0 0 0-3.95.71c-5.7 1.86-12.83 8.14-16.65 13.1-10.21 13.24-15.64 31.28-13.88 46 .67 5.45 4.29 13.48 9.94 13.48a8 8 0 0 0 2.26-.39c9.73-3.22 23.76-21.42 32.8-36l1.88-3 1 3.4c4.74 15.1 10.82 22.71 18.13 22.64a12.89 12.89 0 0 0 3.75-.65c17.3-5.7 28.66-30.07 34.77-43.23l.33-.76c1.18-2.52 2.63-5.63 2.36-7.85-.11-.91-.41-1.94-.78-1.93a1.29 1.29 0 0 0-.42.1c-1.7.55-3.5 5-4.26 6.82l-.22.55c-2.33 5.58-14.68 33.5-28.77 38.13a5.06 5.06 0 0 1-1.72.3c-8 .08-11.4-18.19-12.73-29.09v-.38l.13-.37c9.67-27.65 25.15-81.75 21.85-109-.9-7.62-3.95-16.51-9.51-16.46a8.06 8.06 0 0 0-2.18.39c-4.07 1.34-8.22 7.05-9.56 8.93-14.92 20.6-19.25 73-16.59 94.71l.43 3.61-3-2.07a9.1 9.1 0 0 0-5.41-1.69Zm-24.5 76.51c-8.17.09-12.44-10-13.21-16.33-1.86-15.48 3.88-34.49 14.52-48.38 4.22-5.49 11.82-12.12 18.18-14.24a14.71 14.71 0 0 1 9.43-.11c-2-23.65 2.78-73.69 17.51-94 2.62-3.63 6.62-8.61 11.18-10.11a10.41 10.41 0 0 1 3.17-.56c9.69-.1 12.24 14.77 12.79 19.33 4.1 33.79-18.67 100.85-21.9 110.1 1.88 15.3 5.74 25.92 9.41 25.92a1.83 1.83 0 0 0 .73-.15c9.89-3.23 20.62-21.56 26.78-36.29l.22-.54c1.17-2.86 3.11-7.66 6.22-8.69a4.55 4.55 0 0 1 1.41-.25c1.3 0 3.54.59 4 4.77.39 3.11-1.29 6.75-2.63 9.63l-.33.74c-6.34 13.56-18.07 38.82-36.7 44.95a16.27 16.27 0 0 1-4.74.82c-8.29.09-15.07-7.2-20.17-21.65-5.77 8.93-20.74 30.56-32.72 34.5a10.77 10.77 0 0 1-3.15.54ZM552.71 173.48c-1 5.19-6.47 10.27-11.89 9.8-4.21-.34-6.1-4.14-5.24-8.16 1-5 6.22-10.29 11.66-9.82 4.24.36 6.28 4.2 5.47 8.19Zm-25.8 84c10.88.93 31.39-20.74 38.63-28.93 1.57-1.71 4.07-4.73 6.69-4.52s2.08 2.6 1.68 4.62c-.54 2.59-5.5 7.67-7.57 9.75-9.92 10.19-31.46 30-45.73 28.76-15.9-1.34-13.57-24.15-11.16-35.76 1.57-7.4 5.72-17.47 9.34-24.26 3.92-7 8.71-12.32 17.17-11.6 3 .23 4.39 1.58 3.71 4.78-1.13 5.41-7.82 14.84-10.49 20.74a98.18 98.18 0 0 0-5.54 17.62c-.9 4.61-3.57 18.24 3.27 18.79Z" fill="#fff" transform="translate(-9.42 -40.52)"/>
	<path d="M546.57 166.92c-4.36 0-8.55 4.57-9.33 8.56a5.76 5.76 0 0 0 .77 4.66 4 4 0 0 0 3 1.57c4.33.36 9.16-3.79 10.14-8.51a5.57 5.57 0 0 0-.83-4.57 4.18 4.18 0 0 0-3.11-1.67 4.75 4.75 0 0 0-.69-.07ZM541.64 185a8 8 0 0 1-6.28-2.93 9 9 0 0 1-1.36-7.27c1.15-5.57 7-11.63 13.39-11.1a7.49 7.49 0 0 1 5.51 3 9 9 0 0 1 1.4 7.19c-1.16 5.29-6.5 11-12.72 11.08Zm-7.26 12.12c-5.69.07-9.89 3.31-14.12 10.83-3.31 6.14-7.62 16.25-9.21 23.85-1.32 6.37-3.83 22 1.86 29.65a10.25 10.25 0 0 0 7.83 4.14c14.51 1.2 37.8-21.46 44.43-28.27 6-6 7-8.3 7.14-8.95s.48-2.24.23-2.55a.72.72 0 0 0-.45-.11c-1.6-.14-3.58 2.07-4.89 3.49l-.48.52c-7.8 8.8-27.31 29.35-39 29.48h-.91a5.71 5.71 0 0 1-4.15-2.31c-2.3-3.11-2.45-9.13-.52-18.47a97.51 97.51 0 0 1 5.65-18 90.41 90.41 0 0 1 4.33-8c2.53-4.38 5.39-9.33 6-12.44A2.85 2.85 0 0 0 538 198a3.07 3.07 0 0 0-2.07-.73 7.52 7.52 0 0 0-1.55-.16ZM522 268.82c-.53 0-1 0-1.57-.05a13.49 13.49 0 0 1-10.16-5.46c-6.22-8.35-4.2-23.85-2.42-32.26 1.65-7.94 6-18.11 9.54-24.71 3.24-5.79 8.06-12.44 16.92-12.51a17.73 17.73 0 0 1 1.79.08 5.92 5.92 0 0 1 4.5 2.08 5.5 5.5 0 0 1 .66 4.7c-.74 3.61-3.63 8.58-6.43 13.37-1.63 2.83-3.17 5.52-4.15 7.66a93.25 93.25 0 0 0-5.43 17.34c-2.14 10.26-1.22 14.29 0 15.85a2.45 2.45 0 0 0 1.81 1h.61c8.5-.08 24.51-14.74 36.65-28.42l.49-.55c1.74-1.89 4.42-4.8 7.54-4.54a3.72 3.72 0 0 1 2.79 1.41c1.12 1.49.69 3.54.37 5.18-.3 1.39-1.44 4-8 10.58-8.51 8.73-30.06 29.09-45.51 29.25Z" fill="#fff" transform="translate(-9.42 -40.52)"/>
	<path d="M621.41 218.63c-2.4 15.69-12.06 31.8-24.74 42.52-6.71 5.73-16 11.22-24.57 11-18.67-.49-17.3-26.45-15.21-40.32 4.91-32.41 17.85-64.8 31.36-95.56 4.32-9.91 8.66-20 13.93-29.69 3.63-6.67 5.78-8.86 12.84-11.73 2.36-1 4.92-1.92 7.31-1.84 3 .08 3.91 2.16 3.47 5-.85 5.71-6.07 14.77-8.87 20-13.07 24-25.2 49.66-33.18 75.43-4 12.82-8.75 26-10.74 39-.91 6.11-4.47 31 5.54 31.28 3.39.08 6.78-2.28 9.33-4.47C596.82 252 607 235 608.69 224c2-13.27-5.69-18.17-17.49-18.51-2.41-.07-4.09-3.59-3.75-5.84.63-4.08 5.07-5.58 8.51-5.69 4-.11 7.82 0 11.86-.1 8.08-.17 16.1-1.39 24.18-1.76h.62a3.89 3.89 0 0 1 4.15 4.39c-.77 5.11-13.62 6.41-17.48 6.69a25.51 25.51 0 0 1 2.12 15.45Z" fill="#fff" transform="translate(-9.42 -40.52)"/>
	<path d="M622 94.58a18.52 18.52 0 0 0-6.4 1.74c-6.82 2.77-8.61 4.72-12 11-5 9.15-9.21 18.83-13.28 28.18l-.6 1.37c-13.35 30.42-26.37 63-31.23 95.15-1.41 9.33-2.77 26.06 3.94 34a12.33 12.33 0 0 0 9.68 4.43c9.76.24 19.7-7.35 23.48-10.6 12.67-10.69 21.91-26.58 24.19-41.53a24 24 0 0 0-1.92-14.32l-1-2.18 2.4-.18c9.22-.73 15.64-2.86 16-5.31a2.2 2.2 0 0 0-.52-1.72 2.36 2.36 0 0 0-1.83-.83h-.84c-3.46.17-7.1.5-10.63.84-4.42.41-9 .84-13.48 1h-11.87c-.64 0-6.32.31-6.93 4.32a4.66 4.66 0 0 0 1 3.25 1.66 1.66 0 0 0 1.12.71c7.54.22 13 2.24 16.14 6 2.86 3.43 3.86 8.3 2.92 14.33-1.68 11.2-11.86 28.47-21.37 36.29-3.86 3.32-7.26 4.91-10.37 4.82a6.53 6.53 0 0 1-5.08-2.5c-4.64-5.53-3.64-19.7-2-30.62 1.59-10.45 5-21 8.22-31.17.86-2.71 1.74-5.41 2.56-8.09 7-22.7 17.85-47.46 33.28-75.74.31-.6.66-1.26 1-2 2.75-5.09 6.91-12.76 7.63-17.53a3.54 3.54 0 0 0-.21-2.59 2.23 2.23 0 0 0-1.58-.55Zm-49.14 179.17H572a15.65 15.65 0 0 1-12-5.59c-7.51-9-6.15-26.79-4.65-36.62 4.93-32.56 18-65.33 31.47-96l.57-1.37c4.15-9.42 8.29-19.17 13.42-28.46 3.69-6.75 6-9.33 13.65-12.44a20.24 20.24 0 0 1 8-2 5 5 0 0 1 4 1.71 6.26 6.26 0 0 1 1 5.18c-.8 5.35-5 13-8 18.59-.38.7-.73 1.36-1 2-15.32 28.1-26.12 52.66-33 75.16-.82 2.7-1.7 5.39-2.56 8.13-3.23 10.05-6.59 20.47-8.12 30.64-2.15 14.29-1.7 24.54 1.26 28.06a3.46 3.46 0 0 0 2.71 1.34h.2c2.24 0 4.84-1.35 8-4 8.87-7.26 18.67-23.93 20.25-34.28.79-5.1 0-9.06-2.21-11.76-2.53-3.06-7.15-4.67-13.71-4.86a4.9 4.9 0 0 1-3.55-1.87 7.75 7.75 0 0 1-1.74-5.83c.74-5 5.86-7 10-7.09h11.89c4.41-.12 8.92-.53 13.26-.94 3.58-.33 7.26-.66 10.9-.86h.85a5.68 5.68 0 0 1 4.31 1.94 5.4 5.4 0 0 1 1.26 4.36c-.75 5-9 7-16.68 7.84a27.91 27.91 0 0 1 1.3 14.17c-2.36 15.67-12 32.34-25.26 43.55-4.04 3.3-14.37 11.19-24.96 11.3ZM698.38 220.77C695 236.39 684.42 252 671.2 262c-7 5.37-16.6 10.29-25.06 9.54-18.39-1.68-15.44-27.69-12.45-41.48 6.92-32.29 21.78-64.07 37.11-94.17 4.92-9.69 9.84-19.58 15.69-29 4-6.46 6.3-8.54 13.48-11 2.41-.82 5-1.62 7.37-1.39 3 .27 3.71 2.4 3.11 5.25-1.25 5.68-7 14.51-10.08 19.56-14.51 23.34-28.11 48.41-37.59 73.84-4.72 12.62-10.37 25.56-13.09 38.56-1.31 6.1-6.43 30.9 3.47 31.8 3.37.29 6.85-1.87 9.52-3.92 9.34-6.78 20.5-23.18 22.82-34.16 2.85-13.19-4.47-18.66-16.16-19.7-2.37-.2-3.79-3.86-3.32-6.09.88-4.06 5.36-5.32 8.79-5.18 4 .17 7.76.49 11.74.65 8 .31 16-.4 24.09-.31l.59.07a3.93 3.93 0 0 1 3.84 4.69c-1.09 5.09-13.91 5.59-17.75 5.65a26.09 26.09 0 0 1 1.06 15.56Z" fill="#fff" transform="translate(-9.42 -40.52)"/>
	<path d="M706.37 96a20.27 20.27 0 0 0-6 1.36c-6.95 2.38-8.82 4.21-12.58 10.31-5.54 8.88-10.31 18.34-14.91 27.48l-.71 1.41c-15.16 29.74-30.08 61.66-37 93.78-2 9.28-4.41 26.16 1.8 34.58a12.08 12.08 0 0 0 9.23 4.95c6.75.63 15.55-2.8 23.93-9.2 13.19-10 23.4-25.4 26.57-40.28a24.4 24.4 0 0 0-1-14.65l-.93-2.22h2.38c9.18-.13 15.67-1.88 16.2-4.32a2.22 2.22 0 0 0-.46-1.87 2.29 2.29 0 0 0-1.8-.87l-.67-.06c-3.52 0-7.12.07-10.6.18-2.48.09-5 .16-7.54.19-2.16 0-4.15 0-5.9-.06-2-.09-4-.2-5.94-.32s-3.85-.26-5.83-.33a1.48 1.48 0 0 0-.42 0c-1 0-5.91.24-6.71 3.93a5 5 0 0 0 .84 3.39 1.78 1.78 0 0 0 1 .74c7.38.67 12.62 3 15.56 7 2.67 3.62 3.35 8.58 2.07 14.68-2.38 11.16-13.57 27.89-23.48 35.12-2.5 1.93-6.51 4.59-10.62 4.2a6.48 6.48 0 0 1-4.85-2.77c-4.29-5.81-2.41-20.06-.06-31 2.22-10.37 6.22-20.82 10.14-30.87l3-7.94c8.36-22.39 20.68-46.66 37.73-74.11l1.11-1.82c3.12-5 7.71-12.44 8.74-17.23a3.79 3.79 0 0 0-.17-2.67 2.05 2.05 0 0 0-1.52-.62 4.2 4.2 0 0 0-.6-.09Zm-58.19 177.2a19.41 19.41 0 0 1-2.18-.08 15.36 15.36 0 0 1-11.56-6.22c-7-9.47-4.47-27.38-2.37-37.2 6.94-32.47 22-64.66 37.25-94.57l.71-1.42c4.65-9.2 9.44-18.67 15.05-27.7 4.08-6.58 6.58-9 14.31-11.69a20.58 20.58 0 0 1 8-1.53 5.16 5.16 0 0 1 3.84 1.94A6.38 6.38 0 0 1 712 100c-1.13 5.34-5.75 12.8-9.14 18.28l-1.12 1.81c-16.93 27.29-29.19 51.34-37.45 73.55-1 2.63-2 5.29-3 8-3.86 9.95-7.84 20.21-10 30.4-3.11 14.28-3.24 24.62-.49 28.33a3.31 3.31 0 0 0 2.52 1.49h.57c2.13 0 4.69-1.21 7.82-3.59 9.24-6.76 20-22.9 22.25-33.18 1.1-5.19.58-9.19-1.51-12-2.34-3.18-6.79-5.09-13.23-5.67a4.81 4.81 0 0 1-3.37-2.07 8.13 8.13 0 0 1-1.4-6c1-4.94 6.23-6.61 10.43-6.5 2 .08 4 .22 5.93.33s3.84.26 5.86.32c1.73.08 3.62.09 5.73.07 2.48 0 5-.1 7.44-.17 3.55-.13 7.26-.26 10.84-.2h.66a5.54 5.54 0 0 1 4.24 2.08 5.44 5.44 0 0 1 1 4.57c-1 5-9.33 6.49-17 6.85a28.68 28.68 0 0 1 .39 14.4c-3.35 15.63-14 31.77-27.8 42.18-4.79 3.66-14.27 9.83-23.99 9.94ZM717 243.37c-1.74 6.44-2.71 16.81 5.3 18 3.33.49 6.92-.87 10-2.52 11.89-6.41 20-20.73 23.36-33 1.8-6.67 3.12-18.43-5.25-19.7-14.68-2.15-30.18 25.12-33.41 37.22Zm37-50.56c14.51 2.13 14.16 18.25 10.9 30.35-4.81 17.77-16.1 36.24-33.73 44.34-5.31 2.35-11.19 3.8-16.66 3-14.08-2.09-14.78-17.5-11.51-29.63 5.44-20.17 27.76-51.51 51-48.06Z" fill="#fff" transform="translate(-9.42 -40.52)"/>
	<path d="M748.6 207.62c-12.44.12-26.73 23.85-30.07 36.17-1.6 5.93-1.52 11.05.19 13.67a5.12 5.12 0 0 0 3.75 2.3c2.42.33 5.45-.45 9-2.36 12-6.49 19.71-21.3 22.56-32 1.41-5.18 2.07-11.9-.18-15.35a5 5 0 0 0-3.73-2.28 9.89 9.89 0 0 0-1.52-.15Zm-24.82 55.46A9.52 9.52 0 0 1 722 263a8.26 8.26 0 0 1-6-3.72c-3.22-4.91-1.5-13.06-.63-16.32 2.85-10.55 17.37-38.37 33.18-38.55a11.88 11.88 0 0 1 2.07.15 8.31 8.31 0 0 1 6 3.71c3.47 5.32 1.55 14.35.57 18-3.2 11.9-11.25 27.1-24.13 34.09a20.52 20.52 0 0 1-9.28 2.72Zm26.4-68.91c-20.4.21-40.32 27.59-45.62 47.14-2.44 9-2 17.32 1.2 22.19a12.22 12.22 0 0 0 9 5.37c4.6.71 10-.28 15.75-2.85 15.07-6.94 27.33-23.11 32.8-43.27 1.25-4.66 3.68-16.2-.85-23.15a11.94 11.94 0 0 0-8.7-5.18 20 20 0 0 0-3.58-.25Zm-32.27 78.18a23.74 23.74 0 0 1-3.67-.25 15.49 15.49 0 0 1-11.2-6.83c-5.32-8.12-2.89-20-1.59-24.82 5.55-20.52 26.78-49.31 48.73-49.53a25.36 25.36 0 0 1 4.08.28 15 15 0 0 1 10.92 6.62c5.1 7.76 3 19.46 1.27 25.76-5.71 21.1-18.67 38-34.6 45.4a35.61 35.61 0 0 1-13.94 3.37ZM757.18 277.64c6.75-19.51 19.18-39.91 29.61-58.16 3.28-5.91 6.43-12.06 9.9-17.93 2.62-4.55 9.62-8.13 14.39-7 4.37 1 4.82 3.87 3.38 8.05-2.34 6.78-7.85 14.33-12.34 20.18A122.28 122.28 0 0 0 789 244.51c8.69-7.26 35.55-30.18 45.48-27.92 7.81 1.77 3.62 15.64 1.69 21.2-3.22 9.34-7.16 18.36-10.41 27.71-1.57 4.59-3.94 12 2 13.34 10.12 2.29 28.43-13.74 35.53-21.17 1.58-1.56 4.21-4.42 6.49-3.89 1.92.44 2.49 2.92 1.87 4.72a19.94 19.94 0 0 1-2.72 3.67c-9.81 11.09-34 28.81-48.35 25.55-13.17-3-8.35-19.28-4.82-29.43 2.6-7.57 6-15 8.63-22.52.33-1 1.17-4-.35-4.38-1.34-.31-4.2 1.41-5.51 2.2-8.49 4.95-17.38 12.8-24.66 19.53A323.11 323.11 0 0 0 769.49 279c-2.64 2.82-6.39 5.41-10 4.6-2.75-.7-3.22-3.37-2.31-5.96Z" fill="#fff" transform="translate(-9.42 -40.52)"/>
	<path d="M823.63 229.7a2.74 2.74 0 0 1 2.44 1.38c.87 1.52.26 3.89-.19 5.19-1.33 3.85-2.85 7.66-4.35 11.34s-3 7.46-4.28 11.2c-1.74 5.07-5.86 16.93-2.38 23.18a8.61 8.61 0 0 0 6 4.15 14.52 14.52 0 0 0 3.54.35c13.48-.13 34.16-15.1 43.24-25.37.12-.16.34-.43.59-.73a16.38 16.38 0 0 0 1.82-2.41 2.88 2.88 0 0 0-.13-2.14.85.85 0 0 0-.59-.47c-1.25-.29-3.5 2-4.65 3.11l-.31.32c-7.17 7.5-23.64 21.78-34.46 21.87a12.4 12.4 0 0 1-2.57-.27 6.09 6.09 0 0 1-4.15-2.94c-1.85-3.37-.44-8.21 1-12.51 1.64-4.71 3.45-9.33 5.18-13.9s3.58-9.14 5.19-13.81c2.85-8.24 3.51-14.38 1.9-17.29a3.52 3.52 0 0 0-2.44-1.8 5.23 5.23 0 0 0-1.18-.1c-10 .1-33.12 19.51-41.85 26.83l-1 .86-2.49-2a123.34 123.34 0 0 1 13.26-22c4.74-6.17 9.88-13.34 12.07-19.7.73-2.07.85-3.61.37-4.49a3.75 3.75 0 0 0-2.54-1.45 6.46 6.46 0 0 0-1.58-.14 14.52 14.52 0 0 0-11 6.41c-2.23 3.78-4.38 7.74-6.43 11.56-1.16 2.08-2.3 4.27-3.47 6.35q-2 3.54-4.07 7.09c-9.62 16.68-19.56 33.92-25.42 50.81a4 4 0 0 0 0 3 1.73 1.73 0 0 0 1.16.79c2.43.55 5.58-1 8.47-4.15 8.29-9.44 15.84-17.94 24.48-25.93 7.51-7 16.38-14.75 25-19.7 1.96-1.29 4.19-2.48 5.82-2.49Zm.84 60a18.23 18.23 0 0 1-4.29-.44 11.85 11.85 0 0 1-8.17-5.73c-3.66-6.6-1-16.76 2.18-25.82 1.31-3.8 2.84-7.65 4.33-11.33s3-7.42 4.28-11.2a7.43 7.43 0 0 0 .45-2.19 17.35 17.35 0 0 0-3.9 1.95c-8.29 4.82-17 12.45-24.41 19.33-8.51 7.87-16 16.3-24.24 25.71-1.84 2-5.53 5.26-9.79 5.31a8.3 8.3 0 0 1-1.85-.19 4.9 4.9 0 0 1-3.25-2.38 7 7 0 0 1-.19-5.63c6-17.18 16.42-35.33 25.66-51.37q2.07-3.57 4.05-7.06a306.3 306.3 0 0 0 3.44-6.29c2.08-3.85 4.23-7.83 6.48-11.66a17.67 17.67 0 0 1 13.84-8 10.43 10.43 0 0 1 2.3.22 6.77 6.77 0 0 1 4.7 3.05c1 1.76.95 4-.13 7.13-2.37 6.83-7.69 14.29-12.58 20.65a107.38 107.38 0 0 0-9.33 14.43c14.14-11.62 30.07-23.3 38.83-23.38a8.4 8.4 0 0 1 1.93.17 6.77 6.77 0 0 1 4.57 3.4c2.12 3.85 1.57 10.55-1.69 19.94-1.62 4.7-3.45 9.39-5.19 13.92s-3.57 9.14-5.18 13.78c-.82 2.45-2.56 7.5-1.25 9.85a2.77 2.77 0 0 0 2.08 1.37 8.59 8.59 0 0 0 1.82.19c9-.1 24.2-12.55 32.15-20.9l.33-.32c1.6-1.63 4.06-4.15 6.72-4.15a4.59 4.59 0 0 1 1 .1 4.08 4.08 0 0 1 2.69 2.08 6 6 0 0 1 .34 4.78 13 13 0 0 1-2.37 3.44 7.93 7.93 0 0 0-.59.71c-9.84 11.05-31.14 26.39-45.77 26.54ZM221.86 228.68c4.8 35.58-37.51 77.61-68.64 91.31 18.58 8.06 40 10.93 60.8 11.75a31.73 31.73 0 0 0 6.75 0c2.71-.21 12.79-3.32 13.34.75 1 7.16-3.66 13.54-10.92 15.42-12.79 3.3-64.77-6.05-76.74-11.34-1.29 7-.35 19.58.59 26.52 1.14 8.59 4.07 13.53-4.74 20.48a15.84 15.84 0 0 1-5.4 2.62c-5.06 1.29-6.89-2.91-7.43-7C123 331.23 121.7 293.75 128 244c.82-6.88 2.38-23.11 8.2-28.07a15.73 15.73 0 0 1 6.12-2.8c5.79-1.51 10.44-.49 11.26 5.75s-3.55 23.65-4.51 31.3a365.24 365.24 0 0 0-3.18 63.57c26.17-13.41 65.61-41.58 61.18-74.33-3.87-28.65-41.7-35-66.65-31-4.15.56-17.91 4.36-18.75-1.84a12.21 12.21 0 0 1 .47-4.08c1.83-6.65 3.47-7.57 10-9.25 2.66-.69 5.34-1.13 8-1.59 31.67-4.44 76.72 0 81.72 37.02Z" fill="#fff" transform="translate(-9.42 -40.52)"/>
	<path d="M146.42 214.12a15.7 15.7 0 0 0-3.73.54 14 14 0 0 0-5.51 2.51c-5 4.24-6.64 18.74-7.45 25.72l-.15 1.27c-5.88 46.66-5.48 83.18 1.48 134.8.52 3.89 1.89 5.84 4.09 5.81a5.48 5.48 0 0 0 1.33-.19 14.41 14.41 0 0 0 4.84-2.35c6.52-5.18 5.9-8.62 4.77-14.87-.25-1.29-.49-2.63-.68-4.15-.81-6-2-19.46-.57-27l.36-2 1.9.81c10.52 4.7 50.81 12.11 69 11.92a30.83 30.83 0 0 0 6.64-.64c6.56-1.68 10.56-7.26 9.72-13.62-.08-.52-1.36-.67-2.53-.66a36.07 36.07 0 0 0-6.22.84c-1.18.24-2.13.4-2.81.47a20 20 0 0 1-2.68.17c-1.43 0-2.89-.08-4.28-.16-25.08-1-45.16-4.87-61.36-11.9l-3.42-1.48 3.41-1.5c30.71-13.48 72.34-55.13 67.69-89.59-4.41-32.72-40.44-37.23-61.5-37a142.49 142.49 0 0 0-18.35 1.39c-2.56.42-5.27.86-7.86 1.54-6.22 1.58-7.2 2.22-8.84 8.11a10.92 10.92 0 0 0-.4 3.41c.08.53.29 2.15 5.18 2.08a55.6 55.6 0 0 0 9.09-1.2l2.62-.46a90.6 90.6 0 0 1 13.27-1c23.34-.24 51.84 8.38 55.21 33.48 5.19 38.37-46.2 67.84-62.07 76l-2.28 1.28-.11-2.54a368.89 368.89 0 0 1 3.22-63.89c.33-2.61 1-6.33 1.81-10.25 1.46-7.45 3.25-16.74 2.72-20.63-.45-3.58-2.18-5.11-5.55-5.07Zm-11.21 174c-2.31 0-6.33-1-7.36-8.64-7-52-7.39-88.73-1.48-135.68l.15-1.24c.92-8 2.65-22.75 8.62-27.85a17.94 17.94 0 0 1 6.77-3.11c7.68-2 12.45.67 13.27 7.11.6 4.39-1.17 13.55-2.73 21.66-.76 3.87-1.46 7.55-1.8 10.05a368.66 368.66 0 0 0-3.23 60.77c31-16.4 61.84-43.4 58.07-71.48-3.12-23-28.89-30.92-52-30.69a87.22 87.22 0 0 0-12.8 1c-.66.08-1.5.24-2.51.43a58 58 0 0 1-9.64 1.25c-6.44.06-8.15-2.64-8.45-4.91a12.37 12.37 0 0 1 .48-4.68c2.07-7.52 4.43-8.71 11.16-10.44 2.73-.71 5.5-1.17 8.18-1.61a144.11 144.11 0 0 1 18.79-1.42c37.7-.38 61.3 14.12 64.78 39.82 2.22 16.45-5.33 36-21.21 55.14-12.53 15-29.49 28.67-45 36.29 15.22 6 33.87 9.33 56.82 10.21 1.47.09 2.78.18 4.1.17a18.28 18.28 0 0 0 2.34-.17 17.56 17.56 0 0 0 2.56-.41 38.77 38.77 0 0 1 6.86-.94c4.4 0 5.56 1.91 5.78 3.52 1 7.87-4 15.12-12.13 17.2a33.56 33.56 0 0 1-7.41.72c-17.56.2-55.31-6.6-68.44-11.41-.83 7.38.16 18.67.89 24 .19 1.41.43 2.7.65 3.95 1.18 6.5 2.12 11.63-6 18a18.19 18.19 0 0 1-6 2.94 9 9 0 0 1-2.08.4ZM512.46 156.87c1 35.88-45.42 73.26-77.77 83.63 17.63 9.95 38.6 15.07 59.25 18a29.62 29.62 0 0 0 6.7.71c2.74.08 13.07-1.93 13.2 2.17.21 7.25-5.07 13.07-12.44 14.17-13.08 2-63.79-12.79-75.14-19.32-2.07 6.85-2.41 19.46-2.2 26.46.25 8.68 2.65 13.88-6.86 19.87a16 16 0 0 1-5.62 2.08c-5.19.77-6.55-3.63-6.68-7.7-1.41-48.41 1.21-85.83 12.67-134.69 1.53-6.75 4.78-22.73 11.1-27a16 16 0 0 1 6.36-2.16c6-.88 10.45.65 10.62 6.9s-6 23.15-7.78 30.66a367.21 367.21 0 0 0-9.8 62.89c27.36-10.65 69.55-34.54 68.58-67.54-.85-28.89-37.81-39.15-63-37.8-4.21.14-18.25 2.46-18.43-3.79a11.91 11.91 0 0 1 .85-4c2.52-6.4 4.26-7.14 10.91-8.12 2.71-.41 5.43-.58 8.15-.75 31.87-1.13 76.3 8 77.33 45.33Z" fill="#fff" transform="translate(-9.42 -40.52)"/>
	<path d="M437.73 134.45a21.07 21.07 0 0 0-2.5.21 13.57 13.57 0 0 0-5.73 1.91c-5.39 3.69-8.57 17.93-10.11 24.8l-.29 1.26c-10.73 45.76-14.15 82.15-12.62 134.26.14 4.59 1.71 6.6 4.8 6.16a14.81 14.81 0 0 0 5.07-1.85c7-4.45 6.76-7.94 6.28-14.3-.1-1.29-.2-2.65-.24-4.15-.17-6.07.06-19.55 2.26-27l.59-2 1.79 1c10.37 6 56 19.43 71.78 19.27a14.75 14.75 0 0 0 2.3-.17c6.7-1 11.25-6.15 11.07-12.51 0-.4-.94-1-4.41-1-1.48 0-3 .14-4.36.27-1 .08-1.9.15-2.53.16h-.7a36.46 36.46 0 0 1-6.51-.73c-24.88-3.6-44.42-9.57-59.81-18.25l-3.23-1.8 3.54-1.15c31.95-10.24 77.71-47.29 76.74-82-1-32.87-37.92-44.2-72.16-43.85-1.21 0-2.38 0-3.54.06-2.59.17-5.3.33-8 .72-6.32 1-7.38 1.44-9.64 7.13a10.63 10.63 0 0 0-.75 3.38c.07 2.32 4.44 2.78 8.08 2.74 2.08 0 4.28-.2 6-.36 1-.08 2-.15 2.65-.18 1.14-.06 2.33-.1 3.54-.1 24.13-.25 60.32 10.07 61.18 39.49 1.13 38.67-53 62.65-69.67 69.09l-2.38.91.14-2.49a367.78 367.78 0 0 1 9.85-63.19c.59-2.53 1.71-6.17 2.87-10 2.22-7.26 5-16.3 4.86-20.22s-1.94-5.56-6.21-5.52Zm-27.26 171.92c-4.42 0-7.08-3.37-7.26-9.39-1.53-52.41 1.92-89 12.7-135.1l.28-1.23c1.77-7.8 5-22.34 11.49-26.78a18 18 0 0 1 7.05-2.43c7.86-1.15 12.28 1.91 12.45 8.45.12 4.43-2.61 13.39-5 21.27-1.17 3.77-2.25 7.36-2.84 9.83a366.3 366.3 0 0 0-9.58 60.06c32.5-13.06 66-36.66 65.2-65-.79-27.09-35.05-36.59-57.9-36.29-1.15 0-2.31 0-3.43.1-.65 0-1.51.08-2.51.18-1.8.13-4 .34-6.22.36-7.43.07-11.25-1.91-11.41-5.92a12.72 12.72 0 0 1 1-4.59c2.86-7.25 5.32-8.18 12.2-9.2 2.81-.42 5.6-.59 8.29-.75l3.65-.08c35.8-.37 74.43 11.79 75.45 47 .48 16.59-9.06 35.26-26.86 52.6-14 13.66-32.31 25.46-48.56 31.43 14.52 7.55 32.7 12.81 55.45 16.11a33.74 33.74 0 0 0 6 .69h.71c.52 0 1.34-.08 2.27-.15 1.35-.12 3-.26 4.62-.28 5-.06 7.6 1.36 7.68 4.15.25 8-5.59 14.6-13.86 15.85a24.52 24.52 0 0 1-2.72.19c-15.75.15-58.06-12.1-71.54-18.73-1.61 7.26-1.8 18.6-1.63 24 0 1.43.13 2.73.23 4 .49 6.57.89 11.79-7.84 17.31a18.08 18.08 0 0 1-6.22 2.28 9.87 9.87 0 0 1-1.34.06ZM238.24 293.75c8.58-6.51 21.4-22.1 21.16-32.78 0-2.23-.92-4.55-3.56-4.15-8.08 1.19-16.56 29.72-17.6 37Zm-16.92 15.35c-.43-18.16 13.48-58.81 35.33-61.92 7.26-1 11.41 3.43 11.61 10.49.31 13.48-18.21 37.62-30.45 43.82a40.3 40.3 0 0 0-.82 8.62c.21 9.08 4 14.21 13.48 12.86 13.48-1.93 21.71-11.41 29.6-23.1 2.08-3 2.39-2.72 3.94-2.42 1.18.24 1.86 3.69 1.91 5.1.06 2.62 1.44 1.21-2.07 5.81-10.65 13.9-22.81 22.61-39.4 25-16.02 2.31-22.79-9.89-23.13-24.26Z" fill="#fff" transform="translate(-9.42 -40.52)"/>
	<path d="M256.39 258.39h-.3c-5.35.75-12.63 19.94-15.35 31.1 8.12-7.47 17.24-20.05 17-28.51 0-.9-.23-2.56-1.39-2.55Zm-20.34 39.05.59-3.89c.78-5.4 9.07-36.9 19-38.3a4.59 4.59 0 0 1 .73-.06c2.8 0 4.6 2.19 4.69 5.78.25 11.13-12.76 27.23-21.84 34.1Zm22.52-48.74a10.61 10.61 0 0 0-1.69.14c-20.35 2.89-34.37 41.35-33.93 60.26.13 5.43 1.78 23.1 18 22.93a27.87 27.87 0 0 0 3.29-.26c15.05-2.15 27.24-9.88 38.36-24.36a24.69 24.69 0 0 0 2.08-2.87.14.14 0 0 1 0-.09 7 7 0 0 1-.27-1.82 9.58 9.58 0 0 0-.88-3.6 2.36 2.36 0 0 0-.53-.1 18.46 18.46 0 0 0-1.53 1.88c-7 10.37-15.79 21.65-30.72 23.78a25.61 25.61 0 0 1-2.89.25c-5.53 0-12.19-2.46-12.45-14.69a44.15 44.15 0 0 1 .86-8.95l.14-.77.72-.38C249 294 267 270.26 266.65 257.72c-.15-5.72-3.05-9.07-8.08-9.02Zm-17.63 86.59c-12.73.13-20.87-9.88-21.25-26.1-.4-17.77 13.05-60.15 36.72-63.59a18 18 0 0 1 2.07-.15c6.84-.07 11.19 4.62 11.41 12.22.31 13.79-17.47 37.73-30.63 44.92a38.72 38.72 0 0 0-.65 7.52c.24 10.37 5.35 11.51 9.17 11.47a16.87 16.87 0 0 0 2.46-.18c12.3-1.77 20-9.86 28.5-22.37 1.36-2 2.36-3.34 4.08-3.35a5.88 5.88 0 0 1 1.25.17h.27c3 .61 3.21 6.6 3.21 6.66a3.68 3.68 0 0 0 .15 1c.47 1.73 0 2.49-2.58 5.78-11.64 15.19-24.52 23.32-40.44 25.61a33.54 33.54 0 0 1-3.74.39Z" fill="#fff" transform="translate(-9.42 -40.52)"/>
	<path d="M1020.91 457.93a15.1 15.1 0 0 1 5.38.69 4.89 4.89 0 0 1 3.11 5 4.36 4.36 0 0 1-1.93 3.88 8.27 8.27 0 0 1-2.85.95 4.83 4.83 0 0 1 3.38 1.92 5.35 5.35 0 0 1 1 3v1.46a10.77 10.77 0 0 0 .07 1.47 3.68 3.68 0 0 0 .15 1l.14.25h-3.26a.34.34 0 0 0 0-.2.89.89 0 0 0 0-.23l-.07-.63V475c0-2.26-.61-3.78-1.86-4.51a8.7 8.7 0 0 0-3.84-.61h-2.75v7.75h-3.47v-19.7Zm3.73 3.11a8.72 8.72 0 0 0-4.15-.75h-3v7.14h3.11a9.25 9.25 0 0 0 3.3-.45 3 3 0 0 0 2-3.06 3 3 0 0 0-1.23-2.88Zm9.33 19.48a17.9 17.9 0 1 1 5.26-12.71 17.28 17.28 0 0 1-5.23 12.71Zm-23.57-23.61a15.61 15.61 0 0 0 0 21.87 15.33 15.33 0 0 0 21.78 0 15.55 15.55 0 0 0 0-21.87 15.31 15.31 0 0 0-21.78 0Z" fill="#1c1b1a" transform="translate(-9.42 -40.52)"/>
	<path d="M501 416q9.47 0 13.7 4.06t4.23 11.35a16.68 16.68 0 0 1-3.29 10 15.11 15.11 0 0 1-3.83 3.6 12.63 12.63 0 0 1-5.13 1.94v.18a13.05 13.05 0 0 1 7 4.73 13.94 13.94 0 0 1 2.61 8.61 19.09 19.09 0 0 1-1.76 8.29 18 18 0 0 1-4.86 6.26 22.57 22.57 0 0 1-7.26 4 27.79 27.79 0 0 1-8.92 1.4h-31.77L475.14 416Zm-8.83 57.14a37.08 37.08 0 0 0 4.23-.32 15.07 15.07 0 0 0 5.14-1.62 12.59 12.59 0 0 0 4.37-3.83 11.53 11.53 0 0 0 1.85-6.94 10 10 0 0 0-1.08-5 7.31 7.31 0 0 0-2.93-2.88 13 13 0 0 0-4.24-1.35 33.52 33.52 0 0 0-5-.36h-18.37l-4.69 22.26Zm4.5-29.47q13.69 0 13.7-12.26a7.36 7.36 0 0 0-1.21-4.5 7.53 7.53 0 0 0-3.11-2.44 14 14 0 0 0-4.1-1 41.65 41.65 0 0 0-4.2-.23H481.9l-4.32 20.46ZM530 441.09a17.1 17.1 0 0 1 4.55-4.73 19.39 19.39 0 0 1 6.13-2.8 27.9 27.9 0 0 1 7.12-.9 37.38 37.38 0 0 1 6.49.54 16.58 16.58 0 0 1 5.41 1.9 10.38 10.38 0 0 1 3.74 3.65 11 11 0 0 1 1.39 5.81 20.37 20.37 0 0 1-.49 4.28c-.33 1.53-.65 2.93-1 4.19l-3 12.71c-.18 1-.44 2-.77 3.24a13 13 0 0 0-.49 3.43 3.15 3.15 0 0 0 .63 2.25 2.19 2.19 0 0 0 1.62.63 3.71 3.71 0 0 0 1.22-.23l1.21-.4-1.17 5.68a15.67 15.67 0 0 1-2.3.67 11.19 11.19 0 0 1-2.39.32 6.26 6.26 0 0 1-4.77-1.71 5.66 5.66 0 0 1-1.26-4.78l-.18-.18a16.18 16.18 0 0 1-6 5 22.52 22.52 0 0 1-9.55 1.71 21.81 21.81 0 0 1-5.55-.68 11.4 11.4 0 0 1-4.46-2.25 11.17 11.17 0 0 1-3-4.06 14.67 14.67 0 0 1-1.12-6.08c0-3.42.73-6.1 2.2-8a14 14 0 0 1 5.64-4.37 28 28 0 0 1 7.57-2q4.14-.54 8-.9c2-.18 3.8-.37 5.27-.59a12 12 0 0 0 3.65-1 4.58 4.58 0 0 0 2.12-2.07 8.44 8.44 0 0 0 .67-3.7 4.88 4.88 0 0 0-.9-3.06 6.43 6.43 0 0 0-2.25-1.85 10.47 10.47 0 0 0-3-.95 20 20 0 0 0-3.2-.27 20.53 20.53 0 0 0-4.28.45 12.28 12.28 0 0 0-3.83 1.49 10 10 0 0 0-2.88 2.61 8.65 8.65 0 0 0-1.54 3.83h-7.66a16.26 16.26 0 0 1 2.41-6.83Zm2.16 32a10.69 10.69 0 0 0 5.82 1.62q9.1 0 13.07-6.13a15.11 15.11 0 0 0 2.56-5.68q.67-3.06 1.49-6.31h-.18a10.28 10.28 0 0 1-4.1 1.67 52.88 52.88 0 0 1-5.27.77q-2.79.27-5.63.67a22.09 22.09 0 0 0-5.1 1.31 9.4 9.4 0 0 0-3.69 2.57 7.22 7.22 0 0 0-1.53 4.64 5.38 5.38 0 0 0 2.54 4.78ZM590.32 416l-8 37.85.18.18 23.43-20.27h10L595.63 451l11.54 29.38h-8.56l-9.1-24.79-9.2 8.2-3.51 16.59h-7.57L582.75 416ZM621.5 463.39a11.3 11.3 0 0 0 1 4.83 9.84 9.84 0 0 0 2.7 3.51 12.79 12.79 0 0 0 3.88 2.16 13.38 13.38 0 0 0 4.5.77 14.59 14.59 0 0 0 8.47-2.3 13.49 13.49 0 0 0 5-6.62h7.66a20.16 20.16 0 0 1-2.88 6.8 18.47 18.47 0 0 1-4.78 4.87 21.06 21.06 0 0 1-6.22 2.93 25.79 25.79 0 0 1-7.21 1 23 23 0 0 1-9.59-1.76 16.56 16.56 0 0 1-6.09-4.51 16.18 16.18 0 0 1-3.15-6 24.09 24.09 0 0 1-.9-6.36 36.88 36.88 0 0 1 1.93-12.21A30.69 30.69 0 0 1 621 441a23.26 23.26 0 0 1 7.66-6.13 20.28 20.28 0 0 1 9.15-2.17q10.28 0 15 5.41t4.73 15.23a20 20 0 0 1-.27 3.43q-.27 1.62-.45 2.61h-35.05a30 30 0 0 0-.27 4.01Zm28.07-15.63a11.21 11.21 0 0 0-1.8-4.24 9.59 9.59 0 0 0-3.47-3 11.44 11.44 0 0 0-5.32-1.13 16.4 16.4 0 0 0-6 1 14.73 14.73 0 0 0-4.64 2.84 16.63 16.63 0 0 0-3.34 4.19 24.73 24.73 0 0 0-2.16 5.09h27a17.33 17.33 0 0 0-.27-4.75ZM707.16 428.65a10.19 10.19 0 0 0-3-4.14 11.33 11.33 0 0 0-4.73-2.21 27.89 27.89 0 0 0-6.13-.63 22.64 22.64 0 0 0-5 .58 17.54 17.54 0 0 0-4.83 1.85 11.54 11.54 0 0 0-3.65 3.25 8 8 0 0 0-1.44 4.86 9.07 9.07 0 0 0 .81 4 9 9 0 0 0 2.21 2.89 12.09 12.09 0 0 0 3.34 2 35.86 35.86 0 0 0 4.1 1.45l8.65 2.34a42.88 42.88 0 0 1 5.77 2 18.32 18.32 0 0 1 4.95 3.15 14.1 14.1 0 0 1 3.47 4.91 18.19 18.19 0 0 1 1.31 7.3 16 16 0 0 1-2.3 8.7 19.88 19.88 0 0 1-5.9 6 26.88 26.88 0 0 1-8.07 3.56 34.5 34.5 0 0 1-8.79 1.17 40.94 40.94 0 0 1-10.63-1.31 22.38 22.38 0 0 1-8.25-4 17 17 0 0 1-5.13-7 22.4 22.4 0 0 1-1.31-10.23h8.56a17.94 17.94 0 0 0 1 7.3 11.17 11.17 0 0 0 3.47 4.78 14.13 14.13 0 0 0 5.55 2.56 31 31 0 0 0 7.12.77 24.68 24.68 0 0 0 5.9-.72 16.48 16.48 0 0 0 5.18-2.21 11.73 11.73 0 0 0 3.65-3.83 10.71 10.71 0 0 0 1.4-5.59 9.09 9.09 0 0 0-.9-4.19 8.89 8.89 0 0 0-2.48-3 14.73 14.73 0 0 0-3.65-2 43.21 43.21 0 0 0-4.42-1.44l-8.74-2.34a31.94 31.94 0 0 1-5.5-2.12 17.87 17.87 0 0 1-4.59-3.25 14.41 14.41 0 0 1-3.16-4.59 17.21 17.21 0 0 1 1-14.27 19 19 0 0 1 5.37-5.81 23.55 23.55 0 0 1 7.48-3.52 31.48 31.48 0 0 1 8.51-1.17 33.1 33.1 0 0 1 9.06 1.22 22.29 22.29 0 0 1 7.52 3.69 17.15 17.15 0 0 1 5.1 6.35 19.89 19.89 0 0 1 1.66 9.29h-8.6a16.26 16.26 0 0 0-.94-6.4ZM740.54 416l-5.49 24.6.18.18a18.05 18.05 0 0 1 7.3-6.08 22 22 0 0 1 9.28-2q6.57 0 9.78 2.89t3.2 9.1a28.43 28.43 0 0 1-.36 4c-.24 1.62-.58 3.33-1 5.13l-5.67 26.59h-7.66l5.9-27.29c.06-.48.15-1 .28-1.67s.23-1.29.36-2 .22-1.35.31-2a11.68 11.68 0 0 0 .14-1.58 5.51 5.51 0 0 0-2.35-4.91 10.08 10.08 0 0 0-5.76-1.58 14 14 0 0 0-6.27 1.54 17.78 17.78 0 0 0-5.27 3.87 12.7 12.7 0 0 0-3.24 4.37 31.56 31.56 0 0 0-1.9 5.36l-5.4 25.78h-7.57l13.55-64.3ZM773.12 451a28.48 28.48 0 0 1 5.14-9.38 25.51 25.51 0 0 1 8.2-6.48 23.85 23.85 0 0 1 10.95-2.44q9.47 0 14.42 4.92t5 14.37a35.67 35.67 0 0 1-1.72 11 28.66 28.66 0 0 1-5 9.42 24.89 24.89 0 0 1-8.11 6.53 23.62 23.62 0 0 1-11 2.39 22.29 22.29 0 0 1-8.24-1.44 17 17 0 0 1-10-10.14 21.8 21.8 0 0 1-1.35-7.8 34.82 34.82 0 0 1 1.71-10.95Zm9.15 20.18q3.24 3.53 9.55 3.52a13 13 0 0 0 7.44-2.16 19.91 19.91 0 0 0 5.4-5.46 25.33 25.33 0 0 0 3.34-7.16 26.21 26.21 0 0 0 1.12-7.3 18.09 18.09 0 0 0-.72-5.14 10.68 10.68 0 0 0-6.08-7 13.18 13.18 0 0 0-5.45-1 13.91 13.91 0 0 0-7.75 2.16 19.91 19.91 0 0 0-5.59 5.46 24.68 24.68 0 0 0-3.38 7.25 27.77 27.77 0 0 0-1.12 7.57 13.13 13.13 0 0 0 3.24 9.22ZM838 433.75l-1.62 6.66h.18a18.94 18.94 0 0 1 7.07-6.12 20.25 20.25 0 0 1 8.34-1.63 20.62 20.62 0 0 1 7.89 1.4 16.07 16.07 0 0 1 5.72 3.92 16.35 16.35 0 0 1 3.51 6 24.42 24.42 0 0 1 1.18 7.75 33.4 33.4 0 0 1-1.76 10.59 31.91 31.91 0 0 1-5.05 9.51 25.57 25.57 0 0 1-8.11 6.84 22.5 22.5 0 0 1-10.95 2.62 28.27 28.27 0 0 1-4.4-.29 16.22 16.22 0 0 1-4.33-1.31 12.57 12.57 0 0 1-3.6-2.52 8.59 8.59 0 0 1-2.21-3.92h-.18l-5 24.87h-7.48l13.52-64.34Zm21.77 9q-2.85-3.33-9.15-3.34a13.73 13.73 0 0 0-7.75 2.26 20.06 20.06 0 0 0-5.72 5.67 27.43 27.43 0 0 0-3.52 7.48 27 27 0 0 0-1.21 7.75 12.59 12.59 0 0 0 3 8.65q3 3.43 8.7 3.43a15 15 0 0 0 8-2.12 19.59 19.59 0 0 0 5.77-5.45 24.67 24.67 0 0 0 3.51-7.39 28.55 28.55 0 0 0 1.18-7.93q-.01-5.67-2.85-9Z" transform="translate(-9.42 -40.52)"/>
</svg>
